<svg viewBox="0 0 135.95 194.29" xmlns="http://www.w3.org/2000/svg"><path d="m129 187.64c0 3.67-28.87 6.65-64.48 6.65s-64.52-2.98-64.52-6.65 28.87-6.64 64.48-6.64 64.52 3 64.52 6.64z" fill="#ddd"/><path d="m88.36 172s-.72 4.14-.82 5.62c0 0 6.68 5.07 8.77 6a5.06 5.06 0 0 1 2.4 4.35s-14.72.32-19.32-1c0 0 1.93-11.06 2.51-15.07 0 .1 4.67-.96 6.46.1z" fill="#29244e"/><path d="m115.17 186.67s.88 1.93-4.53 3.72l-.22.07c-5.66 1.81-6 1.58-8.79.57l2.28-3.12 4.75-3.68s5.77.29 6.51 2.44z" fill="#29244e"/><path d="m114.38 184.79a4.12 4.12 0 0 1 .79 1.88s-2.24-1.25-5.42 1c0 0-4.62 3.84-8.12 3.34a1.93 1.93 0 0 1 .25-1.74l3.39-3.19 2.37-1.87 4-.56z" fill="#ffc800"/><path d="m110.51 183.16c-1.88-1.25-3.63-8-3.63-8h-5.25c1.13 5.63.25 14.13.25 14.13 1.75.87 6.25-2.22 6.25-2.22 3.13-3.6 6.25-2.28 6.25-2.28-.87-1.5-3.87-1.63-3.87-1.63z" fill="#29244e"/><path d="m20.21 175.54c1.85 0 3.35 2.36 3.35 5.28s-1.5 5.28-3.35 5.28h-2.34v-9.31z" fill="#1f1b3b"/><path d="m21.21 180.82c0 2.92-1.49 5.28-3.34 5.28s-3.35-2.36-3.35-5.28 1.5-5.28 3.35-5.28 3.34 2.36 3.34 5.28z" fill="#29244e"/><path d="m44.87 175.54c1.84 0 3.34 2.36 3.34 5.28s-1.5 5.28-3.34 5.28h-2.35v-9.31z" fill="#1f1b3b"/><path d="m45.87 180.82c0 2.92-1.5 5.28-3.35 5.28s-3.35-2.36-3.35-5.28 1.5-5.28 3.35-5.28 3.35 2.36 3.35 5.28z" fill="#29244e"/><path d="m67.41 138.31-8.92-14.18a2 2 0 0 0 -.21-.35v-.06a2.2 2.2 0 0 0 -1.69-.68h-31.3a4.6 4.6 0 0 0 -4 2.82l-13.73 38a2.28 2.28 0 0 0 0 1.67v.07a2.39 2.39 0 0 0 .21.34l8.87 14.06 16.2-13.32h7.94a4.6 4.6 0 0 0 4-2.82l3.59-9.95z" fill="#cc5468"/><path d="m7.54 165.56v.07a2.39 2.39 0 0 0 .21.34l8.89 14.03 10.89-8.95c.88-10.74 2.58-31.18 2.58-31.18l-8.84-14-13.73 38a2.28 2.28 0 0 0 0 1.69z" fill="#b1495a"/><path d="m61.91 129.56h-32.2a5.15 5.15 0 0 0 -4.49 3.15l-13.93 38.82.68 1.08 14.2-39.56a4.09 4.09 0 0 1 3.54-2.49h32.83z" fill="#993f4e"/><path d="m34.13 137.08a4.6 4.6 0 0 0 -4 2.82l-13.73 38a2 2 0 0 0 2 2.82h31.22a4.6 4.6 0 0 0 4-2.82l13.72-38a2 2 0 0 0 -2-2.82z" fill="#993f4e"/><path d="m36.42 147.82a3.21 3.21 0 0 0 -2.82 2l-9.67 26.76a1.4 1.4 0 0 0 1.4 2h22a3.23 3.23 0 0 0 2.82-2l9.67-26.76a1.39 1.39 0 0 0 -1.4-2z" fill="#8f3b49"/><g fill="none" stroke-linecap="round" stroke-miterlimit="10"><path d="m57.13 105.81-13.37 34.48" stroke="#29244e" stroke-width="1.5"/><path d="m56.8 106.66-1.94 5.01" stroke="#1f1b3b" stroke-width="3"/><path d="m68.71 105.81-13.37 34.48" stroke="#29244e" stroke-width="1.5"/><path d="m68.38 106.66-1.94 5.01" stroke="#1f1b3b" stroke-width="3"/></g><path d="m67.05 98.65a7.11 7.11 0 0 1 .31 7s-3.65.24-3.66.16-.46-3.45-.15-3.47a40.78 40.78 0 0 0 3.5-3.69z" fill="#cc704f"/><path d="m52.62 104.56h19.52v2.5h-19.52z" fill="#1f1b3b"/><path d="m39.17 143.13h19.52v2.5h-19.52z" fill="#1f1b3b"/><path d="m119.37 95.54c2.14-5.71 2-16.8 2-16.8-.09-1.6-.21-3.06-.33-4.41a10 10 0 0 0 -5.91.81l.12.38c1.22 5.51 1.07 20.82 1.07 20.82z" fill="#ff8c63"/><path d="m109.12 59.15c1.52 1.52 5.29 13.67 6 16a10 10 0 0 1 5.91-.81 67.38 67.38 0 0 0 -1.82-11.51 4 4 0 0 0 -2-3.67c0-16.69-4.43-28-4.43-28-1.59-.42-3.61-.92-5.58-1.39.23 3.74 1.91 12 1.91 12 3 7.6 0 12.87 0 12.87z" fill="#ddac00"/><path d="m107.21 29.75s1.84-1.67 4.56.4c0 0 2.9 30.7 6.06 61.61l-4.91-.1s-2.18-34.72-3.8-49.86a78 78 0 0 0 -1.91-12.05z" fill="#cc5468"/><path d="m73.15 37s-3 1.34-3.27 8a16.57 16.57 0 0 0 -1.75 11s-.25 5.79-1.13 8a99.77 99.77 0 0 0 -1.38 12.12 7.67 7.67 0 0 0 -1.25 5s5.49 1 8 .63l1.55-2.88 9.33-15.25s-1.2-12.96-1.35-12.62-1.74-14.25-8.75-14z" fill="#ffc600"/><path d="m109.75 73.08c0-2.45-.63-13.93-.63-13.93v-4.48s3-5.27 0-12.87c0 0-1.68-8.31-1.91-12l-2.15-.5c1 .23-5.34 4.69-4.4 4.93-4.55-1.13-.73-6.1-.73-6.1h-11c-11.35 4.23-15.78 8.87-15.78 8.87 3.82.77 5 9.8 5 9.8.3 4.44 0 15.46 0 15.46-2.15 4.28-1.07 7.34-1.07 7.34-6.74 12.25-.75 12.55-.75 12.55v2.31c24.66 8.12 33.25 0 33.25 0l.12-3.68c3.9-.05.05-7.7.05-7.7z" fill="#ffc600"/><path d="m86.76 87.11.38-5.27c-3.4-1.82-10.38-2.38-10.38-2.38-.55-2.56 1.66-10.09 1.66-10.09a16.8 16.8 0 0 1 1.38-7.22c1.44-17.57-3-21-3-21a28 28 0 0 1 1.44 5.57c.3 4.44 0 15.46 0 15.46-2.15 4.28-1.07 7.34-1.07 7.34-6.74 12.25-.75 12.55-.75 12.55v2.31a79.83 79.83 0 0 0 10.34 2.73z" fill="#ddac00"/><path d="m107.21 11.69 1.72 5.05-1.81.51z" fill="#cc704f"/><path d="m85.51 10.41s-8.88 2.38-10 15.38h2l.87-1.88-.12 7.25h5.58v-5.25l1.67 1.63s-1.88-11.25 1.25-14z" fill="#241f44"/><path d="m89.73 82.1c-4.82-.77-13.35 0-13.35 0v2.31c24.66 8.12 33.25 0 33.25 0l.12-3.68c-4.1 2.27-20.02 1.37-20.02 1.37z" fill="#ddac00"/><path d="m105.74 29.41c-3.81-.91-5.81-1.33-5.81-1.33h-11c-2.23.84-4.19 1.7-5.91 2.53 2.51 4.07 7.28 10.45 14.09 13.68a39.68 39.68 0 0 0 8.63-14.88z" fill="#ff8c63"/><path d="m99.2 24a20.52 20.52 0 0 0 .73 4.13l-2.84 4.17-8.38-3.21s1.52-4 0-6.87c0 0-5.41-1.61-4.83-12.72 0 0 .28-8.77 11.32-9.5 0 0 12.68.14 12 11.69 0 0-.16 10.78-.09 12.42.01 0-1.77 2.14-7.91-.11z" fill="#ff8c63"/><path d="m99.2 24s-3.83-.93-3.56-4.81c0 0-2.7 5.82 4.29 8.94z" fill="#cc704f"/><path d="m95.2 0c-11 .73-11.32 9.5-11.32 9.5-.58 11.11 4.83 12.72 4.83 12.72 1.3-1.38.72-2.45.72-2.45a6.08 6.08 0 0 1 -1-4.62c1.79-3.15 4.16 0 4.16 0l.27 3.85h1.34l.35-4.69c5-5 10.28-4.93 12.57-5.13-1.2-9.05-11.92-9.18-11.92-9.18z" fill="#29244e"/><path d="m126.13 92.58s-13.21-2.22-24.72.23c0 0-5.46 7.56.76 20.19 0 0 4.15 7 27 4.34z" fill="#cc5468"/><path d="m119.47 105.8s-12.21 2.58-18.72-1l-1.35-.48a28.35 28.35 0 0 0 2.77 8.68s4.15 7 27 4.34l-3-24.76a24.9 24.9 0 0 0 -6.7 13.22z" fill="#b1495a"/><path d="m126.13 92.58s-10.56 25.89 3 24.76c.02 0 17.18-1.79-3-24.76z" fill="#cc5468"/><path d="m109.75 103.48-9.39 25.71-5.85 26.12-6.15 16.69a36.27 36.27 0 0 1 -6.46 0l2.22-15.13s.73-9 3.87-14.58c0 0 3.51-34.33 4.89-41.89 0 0 6.33-6.21 16.87 3.08z" fill="#cc704f"/><path d="m92.49 102.86c-.09.59-.18 1.22-.27 1.9l2.31 4.91c6.45.24 11.81-2.77 14.73-4.85l.49-1.34a26.94 26.94 0 0 0 -3.29-2.51l-6.84-2.56z" fill="#b16144"/><path d="m102.67 122.84-1.84-6.75a26.12 26.12 0 0 0 -9.66-2.9c-.68 5.76-1.4 12.3-2 17.72 2.42 4.34 4.78 8.47 5.89 10.18l1.36 5.59 3.92-17.49z" fill="#b16144"/><path d="m78.88 106.66s10.5 19.25 13.25 23.5l1.53 6.25s-2.28 13.75 2.22 22.25c0 0 5 14.5 5.75 16.5a4 4 0 0 0 5.25 0s-2-22.75-2.5-29.5c0 0 .75-17-1.5-22.25l-5-18.25s-13.5-7.5-19 1.5z" fill="#ff8c63"/><path d="m76.38 84.41s24 2 33.25 0v6.25s2 7.75 2 12.25c0 0-8.25 2.75-13.75 2.25 0 0-15-2.25-19 1.5 0 0-5-13.75-2.5-22.25z" fill="#29244e"/><path d="m100.23 105.2a12.4 12.4 0 0 1 .77-6.58 36.14 36.14 0 0 0 6.7-4.78c-3 2.17-7.57 2.41-7.57 2.41 2.52-1.56 6-5.89 6-5.89-1.69 2.16-7 3.12-7 3.12a16.08 16.08 0 0 0 -12-3.6c3.25-.24 7.43 2.85 7.43 2.85 1.09 2.65 3.31 12.43 3.31 12.43a18.21 18.21 0 0 0 2.36.04z" fill="#241f44"/><path d="m131.37 99.25c4.46 6.78 1.55 9.6 1.55 9.6-5.71 4.08-8.81-1.88-10-5.33-1.36 6.92-1.18 14.44 6.28 13.82-.05 0 13.61-1.44 2.17-18.09z" fill="#b1495a"/><path d="m130.94 98.61-.29-.4z" fill="#dd464f"/><path d="m99.24 53.21s4.05 2.64 8.46 1.43c0 0-4.28 4.73-8.46-1.43z" fill="#ddac00"/><path d="m83.26 53.26s5 5.2 10.64-.81c0 0-4.64 9.99-10.64.81z" fill="#ddac00"/><path d="m71.32 81.87-4.11 16.5s.11 5-2.38 5.67l-.51 3.39s-1.27.9-2.18 0l-.35-2.6-3.1-.3s.83-1.59 4.62-5.31l2.08-17.92s3.34-2.14 5.93.57z" fill="#ff8c63"/><path d="m98.71 188a4.17 4.17 0 0 0 -.47-2.26 54.35 54.35 0 0 1 -12.37.34l-6.12-1.08-.36 2.06c4.61 1.28 19.32.94 19.32.94z" fill="#ffc800"/></svg>