<svg viewBox="0 0 104.54 52.57" xmlns="http://www.w3.org/2000/svg"><path d="m53.71 5.75s3.56-5.34 9.89-5.75 11.67 7.69 11.67 7.69h-2s-5.11-5.5-8.77-5.5-7.22 4.55-7.22 4.55z" fill="#263238"/><path d="m0 48c2.19-3.65 26.72-1.28 32.26-3.45l3 5.14s-4.26 2.31-11.26 1.49-17.63-1-20.4 1.39z" fill="#263238"/><path d="m0 48c2.19-3.65 26.72-1.28 32.26-3.45l3 5.14s-4.26 2.31-11.26 1.49-17.63-1-20.4 1.39z" opacity=".3"/><path d="m103.32 36.85c-.2.87-.42 1.72-.67 2.55-2 6.81-5.08 12.32-7.32 13.17h-63.59a5.73 5.73 0 0 1 -4.53-2.22l-.05-.07a5 5 0 0 1 -.59-1c-4.39-9.14-8.82-27.48-2.57-35.84a13.9 13.9 0 0 1 2.24-2.36l.18-.14a18.73 18.73 0 0 1 4.34-2.65h.05c4.38-2 9.76-2.89 15-3.28 1.53-.12 3.05-.19 4.54-.22 3.9-.11 7.54 0 10.44.07 10.21.24 18.28 3.28 23.76 2.75a16.45 16.45 0 0 1 6 .48 17 17 0 0 1 1.66.56 26.8 26.8 0 0 1 6.88 4.23c6.22 4.96 6.31 15.12 4.23 23.97z" fill="#263238"/><path d="m103.32 36.85c-.2.87-.42 1.72-.67 2.55-2 6.81-5.08 12.32-7.32 13.17h-63.59a5.73 5.73 0 0 1 -4.53-2.22l-.05-.07a5 5 0 0 1 -.59-1c-4.39-9.14-8.82-27.48-2.57-35.84a13.9 13.9 0 0 1 2.24-2.36l.18-.14a18.73 18.73 0 0 1 4.34-2.65h.05c4.38-2 9.76-2.89 15-3.28 1.53-.12 3.05-.19 4.54-.22 3.9-.11 7.54 0 10.44.07 10.21.24 18.28 3.28 23.76 2.75a16.45 16.45 0 0 1 6 .48 17 17 0 0 1 1.66.56 26.8 26.8 0 0 1 6.88 4.23c6.22 4.96 6.31 15.12 4.23 23.97z" fill="#fff" opacity=".1"/><path d="m93.58 36.22c-4.55 0-13.65 2.17-27.1-.79a42.8 42.8 0 0 0 -19.09-.15c-.15-2-.31-4.23-.49-6.64-1.19-16.25-10.46-23.07-16.11-20.37h-.05a25 25 0 0 0 -4.34 2.65l-.18.14a13.9 13.9 0 0 0 -2.22 2.38c-6.23 8.36-1.8 26.7 2.59 35.87a5 5 0 0 0 .59 1l.05.07a5.76 5.76 0 0 0 4.32 1.95h11.39c4.65 0 5.2-4.26 4.68-13.41.79-.46 1.76-1 2.84-1.74 2.83-1.84 13.84-.93 18.59.85s17.21 2.57 23.24 1.59a40.28 40.28 0 0 1 10.36-.19c.25-.83.47-1.68.67-2.55-2.08-.25-6.41-.66-9.74-.66z" opacity=".2"/><path d="m52.24 13.27c2.77 10.09 4.67 13.65 5.4 14.64s20.87 3.38 24.65 3.37a73.18 73.18 0 0 0 13-1.28c2.57-.65 3.4-13.59-3.08-21.35a17 17 0 0 0 -1.66-.56c3.53 7.92 3.61 17.62 3.19 19-.6 1.92-6.53 1.64-9.3 1.58s-20-1.13-21.76-1.83a9.13 9.13 0 0 1 -4.15-3.45c-1.39-1.78-1.58-7.91-4.09-13.2a20.76 20.76 0 0 0 -4.11-5.39c-1.49 0-3 .1-4.54.22a13.19 13.19 0 0 1 6.45 8.25z" opacity=".2"/><path d="m32.26 22.56-5.54 1.44s-3.93 11.27-1.58 16-16.04 11.26-25.14 8l3.58 4.6s21.76-1.37 25.91-9.66-1.78-9.58-2.17-11.94 4.94-8.44 4.94-8.44z" fill="#263238"/><path d="m32.26 22.56-5.54 1.44s-3.93 11.27-1.58 16-16.04 11.26-25.14 8l3.58 4.6s21.76-1.37 25.91-9.66-1.78-9.58-2.17-11.94 4.94-8.44 4.94-8.44z" fill="#fff" opacity=".1"/></svg>