<svg viewBox="0 0 57.07 160.12" xmlns="http://www.w3.org/2000/svg"><path d="m14.49 3.76h12.53v62.31h-12.53z" fill="none" stroke="#263238" stroke-miterlimit="10" stroke-width="3" transform="matrix(-.99694466 -.0781111 .0781111 -.99694466 38.72 71.35)"/><path d="m15.28 152 2 .15a4 4 0 1 1 -.62 7.94l-2-.15a4 4 0 1 1 .62-7.94z" fill="#263238"/><path d="m10.94 155.6a4.05 4.05 0 1 0 4.36-3.73 4.05 4.05 0 0 0 -4.36 3.73z" fill="#fff" opacity=".1"/><path d="m4.37 151.16 2 .16a4 4 0 1 1 -.62 7.94l-2-.16a4 4 0 1 1 .63-7.94z" fill="#263238"/><path d="m0 154.74a4.05 4.05 0 1 0 4.38-3.74 4 4 0 0 0 -4.38 3.74z" fill="#fff" opacity=".2"/><rect fill="#263238" height="99.71" rx="2.69" transform="matrix(-.99694466 -.0781111 .0781111 -.99694466 20.24 207.32)" width="20.9" x="3.72" y="53.41"/><rect fill="#fff" height="99.71" opacity=".2" rx="2.69" transform="matrix(-.99694466 -.0781111 .0781111 -.99694466 27.92 208.22)" width="13.16" x="11.45" y="53.71"/><rect fill="#263238" height="5.23" rx="2" transform="matrix(-1 -.08 .08 -1 46.4 8.06)" width="17.05" x="14.83" y=".51"/><rect fill="#fff" height="5.23" opacity=".2" rx="2" transform="matrix(-1 -.08 .08 -1 46.4 8.06)" width="17.05" x="14.83" y=".51"/><rect height="5.23" opacity=".2" rx="2" transform="matrix(-.99695828 -.0779371 .0779371 -.99695828 34.53 6.66)" width="5.09" x="14.85" y=".04"/><path d="m57.05 64.12-6.65 85a5.68 5.68 0 0 1 -6.1 5.21l-31-2.43a4 4 0 0 1 -3.65-4.29l6.92-88.32a4 4 0 0 1 4.28-3.67l31 2.43a5.69 5.69 0 0 1 5.2 6.07z" fill="#407bff"/><path d="m57.05 64.12-6.65 85a5.68 5.68 0 0 1 -6.1 5.21l-31-2.43a4 4 0 0 1 -3.65-4.29l6.92-88.32a4 4 0 0 1 4.28-3.67l31 2.43a5.69 5.69 0 0 1 5.2 6.07z" fill="#fff" opacity=".2"/><path d="m35.73 56.75v.12l-1.1-.09a4 4 0 0 0 -4.28 3.67l-6.93 88.34a4 4 0 0 0 2.73 4.08l-12.89-1a4 4 0 0 1 -3.65-4.28l6.91-88.33a4 4 0 0 1 4.28-3.67z" opacity=".2"/><rect height="89.05" opacity=".2" rx="1.09" transform="matrix(.99694466 .0781111 -.0781111 .99694466 8.24 -2.16)" width="2.64" x="30.45" y="59.7"/><rect height="89.05" opacity=".2" rx="1.09" transform="matrix(.99694466 .0781111 -.0781111 .99694466 8.33 -2.64)" width="2.64" x="36.65" y="60.62"/><rect height="89.05" opacity=".2" rx="1.09" transform="matrix(.99694466 .0781111 -.0781111 .99694466 8.38 -3.13)" width="2.64" x="42.86" y="60.98"/><rect height="89.05" opacity=".2" rx="1.09" transform="matrix(.99694466 .0781111 -.0781111 .99694466 8.42 -3.61)" width="2.64" x="49.06" y="61.34"/></svg>