<svg viewBox="0 0 131.72 191" xmlns="http://www.w3.org/2000/svg"><path d="m131.72 181.27c0 5.38-28.87 9.73-64.48 9.73s-64.48-4.35-64.48-9.73 28.87-9.74 64.48-9.74 64.48 4.36 64.48 9.74z" fill="#ddd"/><g fill="#131123"><path d="m33.05 177.89s4.73 2.21 7.45.68l1 .46s-2.27 2.77-9.35.49z"/><path d="m45.58 154.13s3.27 10.21-6.12 24.25a2.34 2.34 0 0 0 2.36 1.12s11.21-18 6.31-28.66z"/><path d="m33.32 130.1h47.68v1.3h-47.68z" transform="matrix(.44541667 -.8953234 .8953234 .44541667 -85.36 123.69)"/><path d="m26.24 125.8h47.67v1.3h-47.67z" transform="matrix(.4447915 -.89563414 .89563414 .4447915 -85.45 115.04)"/><path d="m62.6 100.09h2.6v14.28h-2.6z" transform="matrix(.50301995 -.8642748 .8642748 .50301995 -60.92 108.52)"/><circle cx="28.31" cy="182.92" r="3.9"/></g><path d="m33.63 183.4a3.9 3.9 0 1 1 -3.89-3.9 3.89 3.89 0 0 1 3.89 3.9z" fill="#211d3e"/><path d="m31.69 183.4a1.95 1.95 0 1 1 -2-2 2 2 0 0 1 2 2z" fill="#131123"/><path d="m20.3 178.18a3.21 3.21 0 1 1 -3.2-3.2 3.2 3.2 0 0 1 3.2 3.2z" fill="#131123"/><path d="m21.48 178.57a3.21 3.21 0 1 1 -3.21-3.2 3.21 3.21 0 0 1 3.21 3.2z" fill="#211d3e"/><path d="m19.87 178.57a1.6 1.6 0 1 1 -1.6-1.6 1.59 1.59 0 0 1 1.6 1.6z" fill="#131123"/><path d="m68.67 40.19s-8-3.31-12.58 4.22c0 0-5.25 18.48-2.39 38.56 0 0 4.22 10.26 18.13 8.1z" fill="#2598ff"/><path d="m71.83 91.07-1.74-28.13c-7.24 1.83-13.49 7.06-17.19 10.69a87.24 87.24 0 0 0 .8 9.37s4.22 10.23 18.13 8.07z" fill="#363068"/><path d="m71.06 78.6-2.39-38.41s-5.1-2.09-9.48.89a23.91 23.91 0 0 0 -.71 12.51s2.77 13.6 2.08 20.67c0 0 4.8 4.9 10.5 4.34z" fill="#363068"/><path d="m63.31 39.55v8.79c-.31 11.66 2.49 18.45 2.49 18.45l-.8 6.79c-11.46 1.81-11.3 9.42-11.3 9.42s4.22 10.26 18.13 8.1l-3.16-50.91a11.9 11.9 0 0 0 -5.36-.64z" fill="#29244e"/><path d="m77.66 25.88s6.28-.25 12.57 5.92l-2.49.39-4.64-1.25-4.93-3.28z" fill="#363068"/><path d="m78.26 26.22a9.76 9.76 0 0 0 .53-5.42s-7.22-10.72-2.3-16.09c0 0 3.44-5.7 11.88-4.56 0 0 11.53 0 7.19 5.36 0 0 5.13 21.17-2.17 20.37l-2.45-.51s-1.8 4.33-1.72 6.13c0 0-8.01.5-10.96-5.28z" fill="#ff8c63"/><path d="m80.14 119.31 1.46 51.51s4.29 2.21 8.21-2.69l2.68-49.93s-6.55-2.56-12.35 1.11z" fill="#cc704f"/><path d="m89.81 168.13.24-4.41a18.13 18.13 0 0 1 -8.61 1.38l.16 5.72s4.29 2.18 8.21-2.69z" fill="#3c5482"/><path d="m80.82 143.36.39 13.6 9.75-10.3.43-7.89-8.31 1.63z" fill="#b16144"/><path d="m85.57 118.42-.95-.85a11.78 11.78 0 0 0 -1.62.43l-2.81 1.36.54 18.9c2.61-.59 8-2.15 8.55-2.23.66-.09 2.16-6.56 2.16-6.56z" fill="#b16144"/><path d="m82.68 126s8.72.82 19.68-5.07c0-.02-10.42-6.69-19.68 5.07z" fill="#211d3e"/><path d="m67.78 87 11.15 37.1a21.49 21.49 0 0 1 14.33-4.58l-6.37-39.72s-10.09 1.32-10.48 1.72-8.63 5.48-8.63 5.48z" fill="#29244e"/><path d="m98.94 112.68 2.59 16s1.92 6.83-5 11.48l-27.86 17.77s-2.67 4.64-2.67 7.69c0 0-6.2-3.48-6.3-9.29l26.76-26.47-4.65-12.86s9.32-5.64 17.13-4.32z" fill="#ff8c63"/><path d="m63.64 152.42-4 3.91c.1 5.81 6.3 9.29 6.3 9.29 0-2.2 1.4-5.22 2.18-6.74-2.69-1.7-4-4.94-4.48-6.46z" fill="#3c5482"/><path d="m100.13 120.09a15.13 15.13 0 0 0 -15.79 3.91l1.73 4.82a30.69 30.69 0 0 1 14.57-5.6z" fill="#cc704f"/><path d="m94.72 79.9 7.64 41s-11.11-1.75-19.68 5.1c0 0-17.15-44-15.3-49.14l23.78.5z" fill="#363068"/><path d="m95 81.46-27.74-3.91c-.22 3.17 2.46 12.2 5.65 21.63a134 134 0 0 0 23.09-12.64z" fill="#29244e"/><path d="m90.13 32.91c-3.97-1.91-13.13-5.91-13.13-5.91-11.32 8.45-11.7 23.53-11.7 23.53l1.94 35.89c9.77 4.44 29.24-4.76 29.24-4.76.8-18.1-6.35-48.75-6.35-48.75z" fill="#ffc600"/><path d="m82.7 52.93c.77 7.11.89 15.49-1.49 21.29l3.23.9a131.63 131.63 0 0 0 .11-24.37 14.72 14.72 0 0 1 -1.85 2.18z" fill="#29244e"/><path d="m69.74 35.34c13.64-9.08 15.06 4.13 15.06 4.13 1.11 9-3.83 11.74-3.88 12.17l-1.24 4.48c10-4.24 8-18.07 8-18.07-1.85-13.52-14.1-7.91-14.23-7.85a27.18 27.18 0 0 0 -3.71 5.14z" fill="#29244e"/><path d="m77.66 25.88s8.75 5 12.57 5.92c0 0 .55.5.07 1.86 0 0-10.89-3.65-13.81-6.27a1.77 1.77 0 0 1 1.17-1.51z" fill="#3c5482"/><path d="m73.33 87.62c1-5.36 3.16-15.85 3.16-15.85 7.32-13.8 7-29 7-29h-9.56s-4 3.17-8.57 6.83c0 .58-.06.92-.06.92l1.94 35.89a15.7 15.7 0 0 0 6.09 1.21z" fill="#ddac00"/><path d="m80.92 51.64-1.24 4.48a12 12 0 0 0 2.63-1.52c.39-2.06.65-3.94.82-5.58a19 19 0 0 1 -2.21 2.62z" fill="#211d3e"/><path d="m60.46 155.56s.08 6.07 5.74 8.36l4.16 11.42s1.57 4.09-.48 4.58c0 0-11.56-5.43-17.83-19.88 0-.04 3.81-3.9 8.41-4.48z" fill="#ffc600"/><path d="m70.93 178.28c-8.84-4.36-15.13-15.34-17.31-19.59a16.31 16.31 0 0 0 -1.57 1.31c6.27 14.45 17.83 19.88 17.83 19.88.76-.14 1.02-.82 1.05-1.6z" fill="#29244e"/><path d="m89.83 167.86 10.11 5.89s6.7.48 7.18 4.63h-25.93s-1-3.26.38-8.35c0-.03 3.65.59 8.26-2.17z" fill="#ddac00"/><path d="m81.19 178.38h25.93a3.66 3.66 0 0 0 -.8-1.92h-25.44a10.28 10.28 0 0 0 .31 1.92z" fill="#29244e"/><path d="m61.61 44.13a3.73 3.73 0 0 0 3.4 0v-6.43s-1.84-2.36-3.4 0z" fill="#363068"/><path d="m70.81 99.5a32.33 32.33 0 0 1 1.61 8.27s-1.76.09-2.93-4.25c0 0-.56-2.65 1.32-4.02z" fill="#cc704f"/><path d="m65.54 57.49s-3.86 32.75-2.54 38.71c0 0-3 4.88-3.25 7.32 0 0-.82 5.68 2.16 6.22 0 0 .4 1.63 3.59 1.49 0 0 2.78-5.82 4.27-8.26a5 5 0 0 0 0-6s1.93-21.9 2.88-26.37c0 0 4.2-6.82 5-11.67.01 0-5.95-5.21-12.11-1.44z" fill="#ff8c63"/><path d="m65 62.18c6.42.48 10.44-1.1 12.45-2.25.08-.34.15-.67.2-1 0 0-6-5.21-12.12-1.44.01 0-.21 1.83-.53 4.69z" fill="#cc704f"/><path d="m64.44 56.9s.73-16.52 9.23-20.9c0 0 17.73-6.8 5.35 22.83-.02.01-10.69.74-14.58-1.93z" fill="#ffc600"/><path d="m62 109.74s.4 1.63 3.59 1.49c0 0 .84-1.75 1.84-3.73a43.25 43.25 0 0 0 -7.59-4s-.84 5.7 2.16 6.24z" fill="#cc704f"/><path d="m96.54 10.5a58.16 58.16 0 0 1 .69 5.84c.88.26 2.69-.58 2.69-.58z" fill="#cc704f"/><path d="m86 19.85s1.58 4.31 4.45 6.66c.26-.68.45-1.14.45-1.14l2.45.51a3.66 3.66 0 0 0 .74 0z" fill="#cc704f"/><path d="m88.37.15c-8.44-1.15-11.88 4.56-11.88 4.56-4.92 5.37 2.3 16.09 2.3 16.09a3.67 3.67 0 0 0 2.62-.95v-5.93a2.71 2.71 0 0 1 3.36-2.76s1.23-.11 1.84 2.76h1.85l.41-3.42a3.58 3.58 0 0 0 2.45-3.34s1-1 4.24-1.65c4.34-5.36-7.19-5.36-7.19-5.36z" fill="#29244e"/><path d="m44.75 145.65s9.08 4.45-2.22 18.38l-10.69 17.89s-12.3 3.5-17.95-9.9c0-.02 14.93-29.47 30.86-26.37z" fill="#29244e"/><path d="m41.05 162.84c4.18-5.15 6.4-9.71 6.69-13.64a6.92 6.92 0 0 0 -1.6-2.5c.73 4-1.41 9.24-6.31 15.29l-12.15 20.33h1.76z" fill="#211d3e"/><path d="m44.75 145.65c-15.93-3.1-30.86 26.35-30.86 26.35a17 17 0 0 0 6.4 8c6.95-16.17 24.46-34.35 24.46-34.35z" fill="#29244e"/><path d="m45.58 146.2a5.73 5.73 0 0 0 -.76-.52h-.06a12.47 12.47 0 0 0 -1.46-.2c-12.2.73-23.38 16.49-28.52 25-.57 1-.88 1.62-.88 1.62a19.54 19.54 0 0 0 3.37 5.46c13.37-21.68 24.61-29.63 28.31-31.36z" fill="#211d3e"/><path d="m27.37 159.73c10.22-12.48 17.52-14.08 17.52-14.08l-3.48-2a85.62 85.62 0 0 0 -14.04 16.08z" fill="#29244e"/><path d="m44.89 145.65s-13.35 2.9-29.21 31.73c0 0-10.26-3.29-15.68-8.32 0 0 14.32-34.06 34.83-29.22z" fill="#29244e"/><path d="m2.3 164.31c-1.49 2.84-2.3 4.75-2.3 4.75 5.42 5 15.68 8.32 15.68 8.32q1.35-2.46 2.69-4.68c-2.6-.91-10.8-4-16.07-8.39z" fill="#ffc600"/><path d="m14.77 148.78a11.64 11.64 0 0 0 -2.72 2.91c4.3 4 13.51 7.8 13.51 7.8a11.71 11.71 0 0 1 2.8-3.89c-2.06-.72-9.36-3.33-13.59-6.82z" fill="#ffc600"/></svg>