<svg viewBox="0 0 197.12 317.87" xmlns="http://www.w3.org/2000/svg"><path d="m70.83 55.23s-21.4-11.97-25.83-15.07-28.12-26.35-29.45-27c0 0 .88-2.66-1.11-4.21s-9.74-6.66-10.85-6.66-3.99 10.85-3.54 13.51 11.29 3.32 11.29 3.32 22.59 26.3 26.13 30 27.69 19.39 27.69 19.39z" fill="#e4897b"/><path d="m79.61 57.43s4.7 9.47-6.7 24.51l-25.1-18.46 10-18.15z" fill="#407bff"/><path d="m72.91 81.94-11.86-8.72-1.55-1.14-6.69-4.91-5-3.69 3.69-6.67 2.08-3.81 4.25-7.69 4.1 2.28 3.54 2 14.14 7.86a11.25 11.25 0 0 1 .85 3.45c.45 4.01-.23 11.37-7.55 21.04z" fill="#fff" opacity=".6"/><path d="m72.91 81.94-11.86-8.72c4.07-8.42 14.6-11.39 19.41-12.34.45 4.03-.23 11.39-7.55 21.06z" opacity=".2"/><g fill="#fff" opacity=".2"><path d="m65.47 49.57-3.54 2.06v-4.02z"/><path d="m57.77 54.26-4.44 6.23-1.84-3.68 2.09-3.79z"/><path d="m61.05 63.63-1.55 8.45-6.69-4.91z"/><path d="m64.12 58.81 2.48 6.33 5.13-6.98z"/></g><g fill="#e4897b"><path d="m126.29 53s21.39-12 25.82-15.08 28.13-26.35 29.46-27c0 0-.89-2.66 1.11-4.21s9.74-6.71 10.85-6.71 4 10.85 3.54 13.51-11.29 3.32-11.29 3.32-22.59 26.3-26.14 30-27.64 19.39-27.64 19.39z"/><path d="m100.71 179.67s-.46 7.57-1.19 17.65c-.46 6.28-1 13.53-1.65 20.54-.84 9.42-1.79 18.4-2.74 24-.87 5.13-12.42 68.84-12.42 68.84h-7.71c2.44-59.41 6.22-82.45 6.36-85.91 0-1.13.09-2.7.14-4.57.15-6.78.28-17.49.36-25.28.06-5.62.09-9.71.09-9.71z"/><path d="m130.58 227.74c-.27 5.19-3.36 82.68-3.36 82.68h-8.51c-4.35-61.72-2.7-83.15-3.48-87.43 0 0 0 0 0-.05-1.33-7.28-2.58-16.85-3.44-23.95-.69-5.71-1.12-9.82-1.12-9.82l17.35-7.5s1.05 9 1.84 19.78c.39 5.4.73 11.27.83 16.73.06 3.42.04 6.68-.11 9.56z"/></g><path d="m81.83 194.92 17.69 2.4c-.46 6.28-1 13.53-1.65 20.54l-16.4 2.34c.15-6.78.28-17.49.36-25.28z" opacity=".2"/><path d="m130.68 218.18-15.46 4.76c-1.33-7.28-2.58-16.85-3.44-23.95l18.07 2.46c.39 5.4.73 11.27.83 16.73z" opacity=".2"/><path d="m84.54 308.3h-10.21a.73.73 0 0 0 -.71.58l-1.62 7.48a1.26 1.26 0 0 0 1.23 1.5c3.3-.05 5.71-.26 9.86-.26 2.55 0 10.26.27 13.79.27s4-3.48 2.54-3.81c-6.52-1.41-11.42-3.36-13.42-5.22a2 2 0 0 0 -1.46-.54z" fill="#407bff"/><path d="m127.84 308h-10.21a.75.75 0 0 0 -.72.57l-1.65 7.49a1.23 1.23 0 0 0 .95 1.47h.28c3.3 0 5.7-.25 9.85-.25 2.56 0 10.26.26 13.79.26s4-3.48 2.55-3.8c-6.48-1.41-11.36-3.37-13.43-5.23a2 2 0 0 0 -1.41-.51z" fill="#407bff"/><path d="m101.41 213.49c.08-.68.16-1.39.24-2.19 1-10.24 2.1-22.53 3-34.38 3.45 9.29 4.94 22.34 6.74 36.57h21a616.93 616.93 0 0 0 -8.71-79.57h-44.55c-.06 4.58-.57 49-1.71 79.57z" fill="#263238"/><path d="m101.41 213.49c.08-.68.16-1.39.24-2.19 1-10.24 2.1-22.53 3-34.38 3.45 9.29 4.94 22.34 6.74 36.57h21a616.93 616.93 0 0 0 -8.71-79.57h-44.55c-.06 4.58-.57 49-1.71 79.57z" fill="#fff" opacity=".2"/><path d="m107.53 42.71a11 11 0 0 1 -.36 1.19 11.59 11.59 0 0 1 -4.17 5.54 11.3 11.3 0 0 1 -1.52.94 10.56 10.56 0 0 1 -12.58-2c-4.21-4.25-4.1-9.16-4.57-17.47a11.26 11.26 0 0 1 .85-5.23 11.38 11.38 0 0 1 14.88-6.14c8.16 3.32 9.28 15.69 7.47 23.17z" fill="#e4897b"/><path d="m103 49.44a11.3 11.3 0 0 1 -1.52.94 10.55 10.55 0 0 1 -9.1.4 12.44 12.44 0 0 1 1.49-2.78 16.45 16.45 0 0 1 9.13 1.44z" opacity=".2"/><path d="m86.29 60.22c4.09 3.72 14.12 2.35 14.12 2.35s6.26-1.72 5-3.67c-3.69-.61-5.48-2.33-6.21-4.54a10.61 10.61 0 0 1 -.38-4.21 23.63 23.63 0 0 1 .31-2.35l-12.4-9.18c1.58 6.06 3.56 17.21-.44 21.6z" fill="#e4897b"/><path d="m103 35.14 1.79.68-.89-3.66s2.63-3.95 0-7.47c0 0 7.24-2.2 3.15-6-1.52-1.42-3.41 0-8.4-2.18-2.71-1.21-11.18-1.3-11.65 2.15 0 0-6.1 0-6.76 10.4a20.79 20.79 0 0 0 6.46 16.43s7.38 1.75 11-1.21 5.3-9.14 5.3-9.14z" fill="#263238"/><path d="m98.29 35.74a5.36 5.36 0 0 0 2.77 3.69c1.69.72 2.8-1.66 2.56-4.16-.24-2.22-1.38-5.34-3.19-4.92s-2.73 3.15-2.14 5.39z" fill="#e4897b"/><path d="m104.69 176.88c-.94 11.84-2 24.16-3 34.4-1.55-14.79-3.41-25.28-3.41-25.28s-1.75-1.43-6.54-9.07 0-21.92 0-21.92c-.15 13.21 12.95 21.87 12.95 21.87z" opacity=".2"/><path d="m133.95 211.76-.92 3.47h-22.36v-3.21z" fill="#407bff"/><path d="m102.5 212.24-.67 3.21h-25.32l-1.53-3.21z" fill="#407bff"/><path d="m105.61 57.81s-3.61-5.75-12.81-6.16-9.87 5.9-9.87 5.9z" fill="#407bff"/><path d="m105.61 57.81s-3.61-5.75-12.81-6.16-9.87 5.9-9.87 5.9z" fill="#fff" opacity=".5"/><path d="m72.68 54.26a471.24 471.24 0 0 1 -1 93.53l53.73-3.28c-.61-54.84-7.95-89.37-7.95-89.37s-13.86 2.91-25.12 2.49a81.07 81.07 0 0 1 -19.66-3.37z" fill="#407bff"/><path d="m117.51 55.14s7.17 16.78 7.95 33.76-29.17 40.28-29.17 40.28-23.07-15.88-40.87-14.44-23.34 7.77-23.34 7.77 13.85-29.61 37.92-39.93c0 0-5-17 2.65-28.32.03 0 16.69 5.42 44.86.88z" fill="#407bff"/><path d="m125.45 88.9a13.87 13.87 0 0 1 0 1.44 16.87 16.87 0 0 1 -.27 2.21 23.93 23.93 0 0 1 -1.53 5 55.08 55.08 0 0 1 -8.28 13c-1.7 2.08-3.5 4.08-5.28 5.94a140.57 140.57 0 0 1 -13.79 12.63 109.92 109.92 0 0 0 -19.24-10.12c-2-.82-4.18-1.59-6.35-2.24a42.36 42.36 0 0 0 -15.28-2.05 58.45 58.45 0 0 0 -14.51 2.84c-.81.28-1.56.58-2.25.87l-.62.27a24.52 24.52 0 0 0 -4.28 2.39c-.15.1-.29.21-.42.31s-.47.36-.65.52l-.24.21a1.33 1.33 0 0 0 -.17.16l-.12.12-.07.07s.12-.26.3-.62l.28-.55c.28-.56.67-1.31 1.18-2.22l.22-.4.39-.69c.13-.24.27-.49.42-.74.58-1 1.26-2.16 2-3.39a101.48 101.48 0 0 1 14.5-18.34 70.35 70.35 0 0 1 6.27-5.52 55.75 55.75 0 0 1 12.34-7.42 48.25 48.25 0 0 1 -1.58-13.37 34.93 34.93 0 0 1 .35-4.27 25.19 25.19 0 0 1 3.89-10.68 51.85 51.85 0 0 0 7.5 1.59 97.26 97.26 0 0 0 10 1 126.49 126.49 0 0 0 20.18-.71q3.42-.37 7.11-1l.23.56a118 118 0 0 1 4.11 12.21c.44 1.59.88 3.29 1.3 5.07s.74 3.37 1.06 5.14a83.65 83.65 0 0 1 1.3 10.78z" fill="#fff" opacity=".6"/><g fill="#fff" opacity=".2"><path d="m118.52 102.53-3.16 8.08c-1.7 2.08-3.5 4.08-5.28 5.94l-6.43-12z"/><path d="m64.12 94.81-12.7.73a70.35 70.35 0 0 1 6.24-5.54z"/><path d="m78.77 62.82-1.36 13.18-9-6.81a34.93 34.93 0 0 1 .35-4.27z"/><path d="m82.93 97.6-4.15-12.68 12.64-2.34z"/><path d="m104.69 85.52v9.49l9.08-3.26z"/><path d="m81.33 113-4.27 6c-2-.82-4.18-1.59-6.35-2.24l-3.22-7.34z"/><path d="m48.89 103.91 6.53 2.77-6.53 4.45z"/><path d="m40.91 117.58c-6.5 2.27-8.83 4.93-8.83 4.93a90.13 90.13 0 0 1 4.83-8.62z"/><path d="m94.27 105.3-5.62 5.83 8.5 1.48z"/><path d="m94.27 68.7 6.61 8.9 4.73-10.08z"/><path d="m124.2 78.12-8.45-5.56 6.09-4.65c.86 3.09 1.7 6.55 2.36 10.21z"/><path d="m125.44 90.34a22 22 0 0 1 -1.8 7.25l-3.54-8.71z"/><path d="m117.73 55.7-5.35 5.49-2-5.08q3.42-.37 7.11-1z"/><path d="m90.21 56.82-3.93 8.32-6.1-9.29a97.26 97.26 0 0 0 10.03.97z"/></g><path d="m125.45 88.9a13.87 13.87 0 0 1 0 1.44 16.87 16.87 0 0 1 -.27 2.21c-7-11.1-5.34-21.14-5.34-21.14l3.3 1.59c.38 1.65.74 3.37 1.06 5.14a83.65 83.65 0 0 1 1.25 10.76z" opacity=".2"/><path d="m97.09 10.94c11.87-4.08 14.85 11.73 3.06 22.41s-25.32 12-26.86 6.59 5.71-22.76 23.8-29z" fill="#407bff"/><path d="m85.2 10.15c6.09 0 14.74 6.2 14.74 6.2s1.24 6.59-4.83 12.4-11.53 6.72-14.93 4.48-4.32-11-4.32-11a6.73 6.73 0 0 1 4.32-4.45s1-7.61 5.02-7.63z" fill="#407bff"/><path d="m95.11 28.75c-6.07 5.8-11.53 6.72-14.93 4.48a5.42 5.42 0 0 1 -1.48-1.56c-2.2-3.31-2.84-9.42-2.84-9.42 5.8 7 12.52-.23 13.45-5.11a7.72 7.72 0 0 0 -1.55-6.69c4 .86 8.38 3.42 10.64 4.87 1 .61 1.54 1 1.54 1s1.24 6.68-4.83 12.43z" opacity=".2"/><path d="m95.11 28.75c-6.07 5.8-11.53 6.72-14.93 4.48a5.42 5.42 0 0 1 -1.48-1.56c6.08 1.81 13.32-1.2 17.21-6.61a13.4 13.4 0 0 0 2.49-9.74c1 .61 1.54 1 1.54 1s1.24 6.68-4.83 12.43z" fill="#fff" opacity=".6"/><path d="m117.5 55.14s-4.69 9.47 6.7 24.51l25.11-18.46-10.02-18.19z" fill="#407bff"/><path d="m149.31 61.19-6.55 4.81-9.69 7.13-8.87 6.52c-.58-.76-1.11-1.51-1.61-2.24a43.31 43.31 0 0 1 -2.76-4.64 26.92 26.92 0 0 1 -3.29-12.08 13.28 13.28 0 0 1 1-5.55l5.58-3.1 9.61-5.33 4.22-2.35 2.34-1.36z" fill="#fff" opacity=".6"/><g fill="#fff" opacity=".2"><path d="m142.76 66-9.69 7.13-4.27-9.5z"/><path d="m141.86 50.72-8.94 3.54-.23-7.55 4.22-2.35z"/><path d="m126.28 58.16-9.74 2.53a13.28 13.28 0 0 1 1-5.55l5.58-3.1z"/><path d="m124.2 70.29-1.61 7.12a43.31 43.31 0 0 1 -2.76-4.64z"/></g></svg>