<svg viewBox="0 0 128.96 188.26" xmlns="http://www.w3.org/2000/svg"><ellipse cx="64.48" cy="181.61" fill="#ddd" rx="64.48" ry="6.65"/><path d="m69.81 86.17s6.84 6.13 13.7 6.43c0 0 7.35-5.87 8.82-12.26 0 0 2.76-17.17-2.87-23.13l-6.71-7.44s-5-6.94-9.53-3.13c0 0-1.16-8.21-4.64-11.48 0 0-8.38 33.17 1.23 51.01z" fill="#29244e"/><g fill="#1e1a39"><path d="m89.46 57.21-2-2.23c-7.15 3.23-10.81 7.57-12.6 11.74-.92-5.66-1.35-9.95-1.35-9.95-.94-9.45 6-10.13 6-10.13-1.79-1.17-4.07-1.83-6.26 0a31.82 31.82 0 0 0 -7.81 9.36c-.68 10.09-.12 21.79 4.37 30.13 0 0 6.84 6.13 13.7 6.43-2.27-2-4.1-6.44-5.56-11.47-.81-14.9 11.51-23.88 11.51-23.88z" opacity=".2"/><path d="m32 88s.76 14.53-5.12 19.54l2.57 1.76s5.69-7.65 4.44-21.3z"/><path d="m21.92 85.54s-4.49 8.67 0 17.07l2.64-2.13s-3.15-7-.52-14.28z"/><path d="m18.31 49.55s-11.64 11.23-2.89 24.3c0 0 7.2-10.97 2.89-24.3z"/><path d="m19 30.46s-5.81 5.39-.33 13.88c0 0 6.46-5.15.33-13.88z"/></g><path d="m18.8 25.7s13.9-16.89 29.46-2.48c0 0 3.43 41.47-12.29 66.52a28.5 28.5 0 0 1 -22.4-4.83s6.79-35.49 5.23-59.21z" fill="#e8724b"/><path d="m48.56 31c0-1.5-.05-2.84-.09-3.94-9.47 6.2-22.54 9.03-29.47 10.16-.07 3.1-.23 6.27-.45 9.42a77.79 77.79 0 0 0 30.01-15.64z" fill="#29244e"/><path d="m16.76 63.37c-.23 1.82-.46 3.58-.69 5.25 5.9.67 17.77.29 30.42-10 .33-2.05.62-4.09.85-6.08-5.82 3.2-20.34 10.46-30.58 10.83z" fill="#29244e"/><path d="m18.39 81.81a9.35 9.35 0 0 0 -3.34-5.57c-.84 5.32-1.48 8.67-1.48 8.67a28.5 28.5 0 0 0 22.43 4.83 67.63 67.63 0 0 0 6.81-14.95c-10.89 7.99-24.42 7.02-24.42 7.02z" fill="#29244e"/><path d="m48.26 23.22c-15.56-14.41-29.46 2.48-29.46 2.48s12.54 4.52 29.46-2.48z" fill="#ec8c6d"/><path d="m48.26 23.22a51 51 0 0 1 -13.55 3.58c-.12 1.88-.26 4-.42 6.18a20.7 20.7 0 0 0 -7.3.72 31.23 31.23 0 0 0 1.32 11.39 10 10 0 0 0 4.81 1.46c-.21 2.14-.44 4.32-.69 6.51a20.85 20.85 0 0 0 -7.14.74 30.88 30.88 0 0 0 1.32 11.38 9.56 9.56 0 0 0 4 1.4q-.51 3.38-1.11 6.6a20.71 20.71 0 0 0 -6.56 0 31 31 0 0 0 0 11.46 9.63 9.63 0 0 0 3.48 1.76c-.37 1.22-.75 2.39-1.15 3.47a27.75 27.75 0 0 0 10.73-.13c15.69-25.05 12.26-66.52 12.26-66.52z" fill="#1e1a39" opacity=".2"/><path d="m107.09 165.51 12.77-4.06a4.63 4.63 0 0 1 3.71 2.82 149.28 149.28 0 0 1 -21.41 14.1l-3.77-4.69s7.15-7.68 8.7-8.17z" fill="#2598ff"/><path d="m101.25 177.24.91 1.13a149.28 149.28 0 0 0 21.41-14.1 4.21 4.21 0 0 0 -.74-1.21 168.12 168.12 0 0 1 -21.58 14.18z" fill="#363068"/><path d="m48.18 176.94-12.89-3.64c-1.57-.44-11.76 2-11.76 2l.56 6a149.18 149.18 0 0 0 25.64 0 4.65 4.65 0 0 0 -1.55-4.36z" fill="#2598ff"/><path d="m23.94 179.66.15 1.66a149.18 149.18 0 0 0 25.64 0 4.13 4.13 0 0 0 0-1.64 163.59 163.59 0 0 1 -25.79-.02z" fill="#363068"/><path d="m61.14 24a29.52 29.52 0 0 0 0-8.26s-2.52-12.88 3.35-15.4c0 0 23.51-2.52 15.68 6.16 0 0 2.09 10.63-1 17.49 0 0-2 1.4-6.72 0a24.57 24.57 0 0 1 -4.06 7.27z" fill="#ff8c63"/><path d="m80.17 6.5c7.83-8.68-15.68-6.16-15.68-6.16-5.87 2.52-3.35 15.39-3.35 15.39a20.61 20.61 0 0 1 .3 3.91 39.46 39.46 0 0 0 4.84.12c-.17-1 0-5.5 0-5.5-.09-5.14 2.4-4.71 2.4-4.71 3.09.08 2.49 5.53 2.49 5.53h1.37v-3.48c2-1.37 1.63-5.1 1.63-5.1a39.92 39.92 0 0 0 6 0z" fill="#29244e"/><path d="m67.31 86.79-26.07 6.45 57.15 80.44s7.39.77 8.7-8.17z" fill="#363068"/><path d="m69.81 86.17-28.57 7.07s-1.24-35.65 3.38-51.93c0 0 4-10.76 12.59-15.06l11.37 8.91s.92 39.34 1.23 51.01z" fill="#3c5482"/><path d="m69.33 66.83c-2.77-1.45-9.26-4.89-9.36-5.49-.11-.76-4.52-18.34-4.52-18.34s-4.24 19.1 1.25 27.16c0 0 2.07 11.19 12.81 3.73-.06-2.25-.12-4.63-.18-7.06z" fill="#344971"/><path d="m45.72 99.55s-20.87 62.35-22.19 75.78c0 0 4.39 1.92 13.8-1.46l20.83-56.81z" fill="#363068"/><path d="m45.5 100.2-.56 1.69a0 0 0 0 1 0 0l-.56 1.72 10 23.91 3.84-10.48-12.5-17.49s-.07.19-.18.53c-.01.04-.03.08-.04.12z" fill="#29244e"/><path d="m69.81 61s7-2.47 10.51-6.82c0 0-.29-1.55 2.43-4.42 0 0 6.42-2.21 6.71 7.44 0 0-1.18 2-5.6 2.53 0 0-10.45 9.41-15.65 13.39a15.84 15.84 0 0 1 1.6-12.12z" fill="#ff8c63"/><path d="m89.17 54.6a9.75 9.75 0 0 1 -5.84 2.17s-10.24 8.46-12.09 9.76a19.21 19.21 0 0 0 -.22-6c-.74.32-1.21.49-1.21.49a15.84 15.84 0 0 0 -1.6 12.12c5.2-4 15.65-13.39 15.65-13.39 4.42-.49 5.6-2.53 5.6-2.53a15.73 15.73 0 0 0 -.29-2.62z" fill="#cc704f"/><path d="m52 30a32.93 32.93 0 0 0 -5.87 8c12.93-12.28 22.53.66 22.53.67 0-1.51-.06-2.6-.08-3.15v-.41l-1.89-1.48c-5.86-4.24-10.83-4.63-14.69-3.63z" fill="#29244e"/><path d="m69.18 60.54c-.2-8.73-.4-17.22-.51-21.82 0 0-7.76-9.44-13.22 4.25 0 0-1.2 21.13 2.71 25.78 0 0 8.04-5.48 11.02-8.21z" fill="#3c5482"/><path d="m69.18 59.21a3.53 3.53 0 0 1 1.06 2.79s-.95 8.56-2 11.16c0 0-8.62 3.34-10-4.38z" fill="#546992"/><path d="m67.56 87.28-.25-.49-26.07 6.45 3.67 5.17z" fill="#29244e"/><path d="m26.32 32.43s8.12-2.58 13.56 1.57c0 0-1 7.88-3.16 10.88 0 0-5 1.56-9.08-1a31.23 31.23 0 0 1 -1.32-11.45z" fill="#363068"/><path d="m29.13 35.55a5.48 5.48 0 0 0 3.94 2.92s-1.38 6.08-5.43 5.35c4.1 2.59 9.08 1 9.08 1 1.94-2.74 3-9.51 3.13-10.69-.28.34-5.39 5.87-10.72 1.42z" fill="#2b2653"/><path d="m24.62 52.53s8.12-2.53 13.55 1.54c0 0-1 7.88-3.15 10.88 0 0-5 1.56-9.09-1a31.11 31.11 0 0 1 -1.31-11.42z" fill="#363068"/><path d="m27.43 55.65a5.45 5.45 0 0 0 3.94 2.92s-1.37 6.08-5.44 5.35c4.07 2.59 9.07 1.08 9.07 1.08 1.94-2.74 3-9.51 3.13-10.69-.26.26-5.37 5.75-10.7 1.34z" fill="#2b2653"/><path d="m22.44 71.85s8.36-1.62 13.29 3.15c0 0-1.94 7.71-4.4 10.45 0 0-5.13 1-8.91-2.08a31.36 31.36 0 0 1 .02-11.52z" fill="#363068"/><path d="m24.87 75.27a5.46 5.46 0 0 0 3.57 3.37s-2.07 5.88-6 4.68c3.78 3 8.91 2.08 8.91 2.08 2.24-2.5 4.05-9.11 4.35-10.26-.34.28-6.05 5.14-10.83.13z" fill="#2b2653"/><path d="m25.16 26.93a48.06 48.06 0 0 0 23.1-3.71c-4.77-4.42-9.39-5.89-13.49-5.81-.1 2.01-1.26 6.8-9.61 9.52z" fill="#1e1a39" opacity=".2"/><path d="m82.93 18.13a18.45 18.45 0 0 0 -2.11-5.61 34.91 34.91 0 0 1 -.14 5.36c.89.12 2.25.25 2.25.25z" fill="#cc704f"/><path d="m69 19.78s-2.79 2.79 2.39 6.72a22.48 22.48 0 0 0 1-2.51s-4.67-.99-3.39-4.21z" fill="#cc704f"/><path d="m60.13 22.8s-2.79 1.34-2.92 3.45l11.37 8.91 2-1.91z" fill="#546992"/><path d="m52.15 90.54 50.52 82.19a8.32 8.32 0 0 0 1.09-.7l-50.29-81.82z" fill="#433d71"/><path d="m27.44 175.87c.43 0 .89 0 1.39-.05l23.79-66.55-.91-1.27z" fill="#433d71"/><path d="m71.72 74.48s5.65-2.78 10.08-.37c0 0 .12 5.87-1.1 8.3a8.89 8.89 0 0 1 -6.76.25 23.08 23.08 0 0 1 -2.22-8.18z" fill="#29244e"/><path d="m74.12 76.45a4.05 4.05 0 0 0 3.21 1.7s-.34 4.6-3.39 4.51a8.89 8.89 0 0 0 6.76-.25c1.11-2.22 1.11-7.28 1.1-8.16-.17.26-3.3 4.84-7.68 2.2z" fill="#1e1a39" opacity=".2"/><path d="m84.35 71.58a20.25 20.25 0 0 0 8.65-5s5.68 11.78-3.54 19.72c0-.05-8.19 4.16-5.11-14.72z" fill="#1e1a39"/><path d="m94.63 72.67c-7.37 1.46-7.73 7.89-7.73 7.89-1.12-2.54 0-8.13 0-8.13a21.5 21.5 0 0 0 4.17-2 3.87 3.87 0 0 1 -3.56 0 19.05 19.05 0 0 1 -3.16 1.19c-3.08 18.88 5.11 14.67 5.11 14.67a15.06 15.06 0 0 0 5.17-13.62z" fill="#1e1a39" opacity=".2"/></svg>