<svg viewBox="0 0 128.96 196.18" xmlns="http://www.w3.org/2000/svg"><path d="m129 189.54c0 3.67-28.87 6.64-64.48 6.64s-64.52-2.97-64.52-6.64 28.87-6.65 64.48-6.65 64.52 2.98 64.52 6.65z" fill="#ddd"/><path d="m22.87 37.23s-11.46 7.37-7.87 32.18c0 0-.34 1.38 4.19 3.36 0 0 5.25-2.14 5.25-2.79v-15.92z" fill="#b1495a"/><path d="m20.52 67c-4.53-2-4.19-3.36-4.19-3.36a54.93 54.93 0 0 1 -.23-15.86c-1.61 5-2.49 12-1.09 21.65 0 0-.34 1.38 4.19 3.36 0 0 5.25-2.14 5.25-2.79v-4.8c-1.56.8-3.93 1.8-3.93 1.8z" fill="#993f4e"/><path d="m60.42 17.74a78.17 78.17 0 0 0 -26.35-1.17l-3.6 9.3s-5.22-.71-7.6 11.36c0 0-6.91 27.87-1.78 58 0 0 9.76 4.05 16.78 3.3s8.81-19.29 8.81-19.29 4.42-21.71 4.51-22 3.77-27 3.77-27z" fill="#10416d"/><g fill="#1b1733"><path d="m51.19 57.2c0-.09.28-1.91.66-4.57l-.66-9.86-6.52 1.73s-1.53-6.78-5.89-9.92c0 0-7.65 14.08-7.64 14.63s-6.69 12.79-6.69 12.79a12.71 12.71 0 0 0 6 4l-.45 4.28-4.63 19.26a12.83 12.83 0 0 1 -4.67 3.22c.12.82.25 1.65.39 2.48 0 0 9.76 4.05 16.78 3.3s8.81-19.29 8.81-19.29 4.42-21.71 4.51-22.05z"/><path d="m32.25 38.58c2.35-11.94 7-12.54 8-12.54h.12l.39.06 3.94-10.16h-1.1l-3.54 9.06c-1.34.07-6.39 1.17-8.79 13.33a185.8 185.8 0 0 0 -3 59.16l1 .24a184.5 184.5 0 0 1 2.98-59.15z"/><path d="m58.64 18.07s-8.81 2.31-9.52 16.51c0 0-7.4 6.21-9 22.58 0 0-6.59 27.46-3.47 41.46a79.37 79.37 0 0 0 20.46-.08l7.55-62.54 4.34-8.28s-3.69-12.11-10.36-9.65z"/></g><path d="m86.06 34.89s.06-15.15-19.69-18c0-.04-.62 13.18 19.69 18z" fill="#ff6982"/><path d="m68.46 5.8s.78-6.88-6-5.65c0 0-8.49 3.83-3 11.74 0 0 2.58 3.15 6.39 0a6.28 6.28 0 0 0 2.61-6.09z" fill="#1b1733"/><path d="m78.77 31.65.3-4.59s4 1.54 5.82 1.07c0 0 4.09-15.89 1.17-20.9 0 0-10.63-11.29-19.3-2.23 0 0-5.17 5.57 1.43 14.88a13.28 13.28 0 0 1 .32 5.8" fill="#ff8c63"/><path d="m73.24 21a6.91 6.91 0 0 0 2.21 8.22s2.26.69 3.41 1l.21-3.13s-6.26-1.51-5.83-6.09z" fill="#cc704f"/><path d="m86.06 7.23s-10.63-11.29-19.3-2.23c0 0-5.17 5.57 1.43 14.88a15.41 15.41 0 0 1 .46 2.42 4.49 4.49 0 0 0 2.35-4.23s-1.23-3.8 2.21-4.42c0 0 1.23-.12 1.6 1.85 0 0 2.79.48 3.54-1.85 0 0 3.62-2.11 1.27-6.4a42.69 42.69 0 0 0 6.44-.02z" fill="#1b1733"/><path d="m78.44 36.21s3.91 19.56 2.63 27.64a95.7 95.7 0 0 0 13.45 4.76l-2.3 7.13s-15-2.44-19-4.35l-1.49-26.85.64-8.74s1.63-2.39 6.07.41z" fill="#1a1732"/><path d="m78.44 32.79v5.75s9 11.75 1.18 18.5c0 0-7.64 23-8.57 31 0 0-18.17 2.94-26.92.6l5.23-37.86 5.45-19.1s3.81-5.39 12.81-6.89z" fill="#241f44"/><path d="m72.48 57.88s-12 3-12.06-8c0 0-5.49 9.24-5.46 9.77s0 9.17 0 9.17l5.13 7s4 4.24 4 3.4-1.52-9.79-.36-16.66c-.01-.08 6.54-.69 8.75-4.68z" fill="#1b1733"/><path d="m63.59 47.43s-1.21 9.62.13 15l-3.3-.43-6.57-3.27z" fill="#1b1733"/><path d="m74.83 38.6-10.68-13c-6.51 2.07-9.34 6.05-9.34 6.05l-.68 2.37a26.86 26.86 0 0 0 20.7 4.58z" fill="#1b1733"/><path d="m54.81 31.68s6.25 8 8.78 15.75l-6.94 11.92 3.09.91a20.68 20.68 0 0 0 6.63-12.83s2-14.19-7.58-19.71c0 0-3.85-1-3.98 3.96z" fill="#0d3457"/><path d="m63.57 47.38s0 0 0 0l-6.92 11.97 3.09.91a20.7 20.7 0 0 0 6.61-12.7 5.85 5.85 0 0 1 -2.78-.18z" fill="#0a2a46"/><path d="m54 34.58-4.62 16.2-3.68 26.49 11.21 12.19a136.23 136.23 0 0 0 14.09-1.46c-1.81-1.86-3.55-3.44-3.55-3.44l-14.23-13.79 6.39-21.28c-.61-9.71-3.38-13.49-5.61-14.91z" fill="#1b1733"/><path d="m32.21 173.77a79.11 79.11 0 0 1 0 8.14s5.23 3.62 5.69 5.37v1.4a28.24 28.24 0 0 1 -11.21 0l-8-13s1.57-4.17 4.23-5.35z" fill="#29244e"/><path d="m55.06 101.37s-4.65 23.81-9.49 30.63l-3.87 5.63s-10.26 13.92-15.49 25.73c-1.48 3.35-2.56 5.57-3.34 7.05.7 1.56 2.83 3.79 9.34 3.4 0 0 15.3-24.58 20.72-30.59a37.34 37.34 0 0 0 5-8.9s12.59-17 14.52-21.88z" fill="#433d71"/><path d="m52.15 114 .35.32s5.76 6.58 10.8 12.52c3.68-5.22 8.1-11.75 9.18-14.46l-17.42-11s-1.15 5.88-2.91 12.62z" fill="#322e55"/><path d="m28.27 186.91-8.63-13.22a14.49 14.49 0 0 0 -1 2l8.05 13a28.24 28.24 0 0 0 11.21 0v-1.4a40.84 40.84 0 0 1 -9.63-.38z" fill="#ffc800"/><path d="m92.07 175.71 1.37 6 8.27 2.91s4.33 1.5 4.5 4.92h-23.67a42.92 42.92 0 0 1 .24-8.52z" fill="#29244e"/><path d="m44.13 88.64s-2.62 12 10.48 23.58c0 0 15.73 18 18 21.34a13.73 13.73 0 0 1 .89 3s-.93 16.2 3.88 25.6c0 0 4.14 14.48 5.43 18.82 0 0 6.09 1.44 10.66-2.17 0 0-7.28-31.33-8.34-40.73 0 0 .23-9.39-2.35-13.27l-20.11-36.17s-12.55-1.35-18.54 0z" fill="#433d71"/><path d="m62.67 88.64s-12.55-1.35-18.54 0c0 0-1.85 8.44 5.32 18 2.67 1.46 6.17 2.12 10.81 1.32 0 0 6.12-1.32 10.11-5.47z" fill="#322e55"/><path d="m82.46 187.7c0 1.1.08 1.84.08 1.84h23.67a4.15 4.15 0 0 0 -.51-1.78c-4.36-.04-18.85-.16-23.24-.06z" fill="#ffc800"/><path d="m48.87 54.34c-1.78 15.7-2.16 32.92-2.19 34.8l1 .13h1c0-.45.88-45.12 7-57.16l-.89-.45-5.45 19.1z" fill="#ffc600"/><path d="m49 79.14c.63-13.14 2.19-35.67 6-45.33a5.7 5.7 0 0 0 -.65-.4l-5 17.37-.49 3.56c-.9 7.91-1.44 16.19-1.76 22.72z" fill="#ddac00"/><path d="m76.21 32.27s5.05 29.73-.21 54.17" fill="none" stroke="#ffc600" stroke-miterlimit="10" stroke-width="2"/><path d="m46.48 88s-.23 22.18 19.23 18.84c0 0 18.87-4.07 11.9-20.33 0 .04-20.61-1.63-31.13 1.49z" fill="#ddac00"/><path d="m64.68 100.07s16.85-1 13-13.4v-.12s-20.68-1.67-31.2 1.45c0 0 1.75 14.16 18.2 12.07z" fill="#ffc600"/><path d="m78.65 96.69a14 14 0 0 0 -2.14-5.12l.49-.37a38.38 38.38 0 0 0 -4.38-4.93 148.2 148.2 0 0 0 -15.27.08l4.86 5.29 6.46 5.64.31-.23a23.1 23.1 0 0 1 3 7.32c2.71-1.58 5.55-4.03 6.67-7.68z" fill="#1e1a39" opacity=".3"/><path d="m77.37 89.54s3 3.65 2.85 7.64c0 0-.78 6.29-6.77 6.24 0 0-1.35-6.76-4.48-9.19.03 0 1.38-6.77 8.4-4.69z" fill="#ff8c63"/><path d="m54.81 31.68s7.65-1.36 8.78 15.75l-6.09 20.27 14 14.84s5.18 4.73 7 7.43l-8.39 6.03-6.46-5.63-17.17-18.63s0-24.31 8.33-40.06z" fill="#29244e"/><path d="m78.44 90c-1.8-2.7-7-7.43-7-7.43a25.18 25.18 0 0 0 -7.81 7.87l6.48 5.56z" fill="#433d71"/><path d="m79.66 28.78s-5 1.06-10.94-4.67a15.2 15.2 0 0 0 -.53-4.23 21.94 21.94 0 0 1 -1.81-3s-5.25 2.72-5 7.94a4.86 4.86 0 0 0 0 5.64s12.33 12.81 18.86 6.35a10.31 10.31 0 0 0 5.88-1.89s-1.79-6.1-6.46-6.14z" fill="#ff6982"/><path d="m110.11 67.15-3.25-10.87-19.75 14.18 7.17 12.08z" fill="#1e7acc"/><path d="m101.34 58.38-16.24 18.35 9.18 5.81 15.83-15.39z" fill="#2598ff"/><path d="m106.71 70.46s-11.2-2-7.55 7.34c0 0 10.15 1.98 7.55-7.34z" fill="#ff8c63"/><path d="m65.66 25.87a6 6 0 0 1 2.13-6.39l.06-.11a19.9 19.9 0 0 1 -1.47-2.52s-5.25 2.72-5 7.94a4.86 4.86 0 0 0 0 5.64s.75.78 2 1.86a6.61 6.61 0 0 1 2.28-6.42z" fill="#cc5468"/><path d="m87 15.12c-.12 1.94-.38 4-.68 5.79a6.65 6.65 0 0 0 2.27 0z" fill="#cc704f"/><path d="m31.67 63.85a13.17 13.17 0 0 0 6-1.83s4.94-17.84 1.13-27.44c-.02 0-13.53 7.64-7.13 29.27z" fill="#b1495a"/><path d="m38.78 34.58s-5.67-1.75-10 0c0 0-9.34 12.86-5.91 27.44 0 0 2.81 1.67 8.8 1.83 0 0-1.05-16.36 7.11-29.27z" fill="#cc5468"/><path d="m27.1 48.82a21.54 21.54 0 0 1 -1.67-8.16c-.4.91-.81 1.91-1.19 3 .76 6.4 2.35 8.34 2.35 8.34l4.75-3.75c-1.35 7.36-6.15 9.15-9.13 9.54a30.11 30.11 0 0 0 .66 4.21s2.81 1.67 8.8 1.83a58.52 58.52 0 0 1 3.69-22.46 92.39 92.39 0 0 1 -8.26 7.45z" fill="#b1495a"/><path d="m29.16 92a9.89 9.89 0 0 0 4.5-1.37s3.71-13.41.85-20.63c0 0-10.16 5.74-5.35 22z" fill="#b1495a"/><path d="m34.51 70s-4.26-1.32-7.51 0c0 0-7 9.67-4.44 20.63 0 0 2.11 1.26 6.61 1.37-.01 0-.8-12.31 5.34-22z" fill="#cc5468"/><path d="m25.73 80.7a16.05 16.05 0 0 1 -1.25-6.14q-.46 1-.9 2.25c.54 4.82 1.76 6.29 1.76 6.29l3.58-2.81c-1 5.53-4.63 6.87-6.86 7.16a21 21 0 0 0 .49 3.17s2.11 1.26 6.61 1.37a43.93 43.93 0 0 1 2.78-16.88 69.87 69.87 0 0 1 -6.21 5.59z" fill="#b1495a"/><path d="m71 32.27a12.15 12.15 0 0 0 3.64 4.51s-1.67.9-5.19-.07c3.64 2 7.75 3 10.7.07.03 0-6.24-1.25-9.15-4.51z" fill="#cc5468"/><path d="m40.87 97.78s.77 14.53-5.12 19.54l2.58 1.75s5.69-7.64 4.44-21.29z" fill="#0d3457"/><path d="m30.76 95.37s-4.5 8.67 0 17.06l2.64-2.13s-3.16-7-.53-14.28z" fill="#0d3457"/></svg>