<svg viewBox="0 0 122.13 66.83" xmlns="http://www.w3.org/2000/svg"><path d="m81.45 17.09s4.35-6.37 8.31-8.15 4.61-8.55 6.75-8.94 4.52 5.87 8.28 7.69 9.45 9.34 9.45 9.34z" fill="#407bff"/><path d="m81.45 17.09s4.35-6.37 8.31-8.15 4.61-8.55 6.75-8.94 4.52 5.87 8.28 7.69 9.45 9.34 9.45 9.34z" fill="#fff" opacity=".8"/><path d="m113.08 62.95h-31.64l-4-45.9h39.64z" fill="#407bff"/><path d="m75.53 14.67h43.47v4.83h-43.47z" fill="#407bff"/><path d="m75.53 14.67h43.47v4.83h-43.47z" fill="#fff" opacity=".2"/><path d="m95.39 18.07c2.88 4.51 15.21 23.17 22.85 24.53l1-2.26s-6.85.82-22-23.41a1.08 1.08 0 0 0 -1.43-.39 1.08 1.08 0 0 0 -.42 1.53z" fill="#263238"/><path d="m50.37 3.59a2.55 2.55 0 0 1 3.22 1.73l5.41 18.89 7-2.81s4.23 15.75-3.76 18.24c-7.81 2.43-13.84-12.11-13.84-12.11l7.14-2-6.8-18.63a2.55 2.55 0 0 1 1.63-3.31z" fill="#407bff"/><path d="m62.26 39.64c-7.81 2.43-13.84-12.11-13.84-12.11l7.14-2s1.23 2.1 2.61 1.58.82-2.93.82-2.93l7-2.81s4.26 15.78-3.73 18.27z" fill="#fff" opacity=".4"/><path d="m122.13 66.83c-3.93-2-7.95-3.79-9.23-3.88-2.77-.18-4.36-1.41-6.33-3.76s-2.77-5.07-6.33-8.86.39-5.29-7.12-6.27-4.62-.35-9.23-3.68-3.69-3.32-9.1-5.7-2.25-3.28-8.58-3.81c-4.37-.37-11.28 1.93-14.87 4.49-1.59 1.13-2.4 3-4 4-1.77 1.13-4.52-1-4.23 2.81a9.46 9.46 0 0 1 .13 3c-.51 2.13-9.32 2.13-11.56 2.8a2.11 2.11 0 0 0 -1.34.82c-.51.91.26 2.52-.73 2.85-.31.11-.65 0-1 0-1.19.23-.87 2.37-2 2.86s-2.41-.51-3.65 0c-.95.35-1.27 1.64-2.1 2.15-1.44.88-3 1.53-4.38 2.46-2.48 1.63-4.63 3.62-7.29 5.06l-7.06 1.91-2.13.75z" fill="#407bff"/><path d="m122.13 66.83c-3.93-2-7.95-3.79-9.23-3.88-2.77-.18-4.36-1.41-6.33-3.76s-2.77-5.07-6.33-8.86.39-5.29-7.12-6.27-4.62-.35-9.23-3.68-3.69-3.32-9.1-5.7-2.25-3.28-8.58-3.81c-4.37-.37-11.28 1.93-14.87 4.49-1.59 1.13-2.4 3-4 4-1.77 1.13-4.52-1-4.23 2.81a9.46 9.46 0 0 1 .13 3c-.51 2.13-9.32 2.13-11.56 2.8a2.11 2.11 0 0 0 -1.34.82c-.51.91.26 2.52-.73 2.85-.31.11-.65 0-1 0-1.19.23-.87 2.37-2 2.86s-2.41-.51-3.65 0c-.95.35-1.27 1.64-2.1 2.15-1.44.88-3 1.53-4.38 2.46-2.48 1.63-4.63 3.62-7.29 5.06l-7.06 1.91-2.13.75z" fill="#fff" opacity=".8"/><path d="m38.21 48.63a1.62 1.62 0 0 1 0 .22 18 18 0 0 1 -2.84 9.55c-.15.23-.3.46-.47.69a18.21 18.21 0 0 1 -3.77 3.91 11.88 11.88 0 0 1 -1 .73 1.75 1.75 0 0 1 -.25.16l-.33.21a5.74 5.74 0 0 1 -.53.32c-.28.16-.57.32-.86.46a18.14 18.14 0 0 1 -21.31-3.69 17.68 17.68 0 0 1 -3-4.27 18.09 18.09 0 0 1 -2-8.29v-.06c0-.51 0-1 .07-1.52a17.9 17.9 0 0 1 1.88-6.72 16.42 16.42 0 0 1 .88-1.53 18.54 18.54 0 0 1 3.84-4.3 15.68 15.68 0 0 1 1.48-1.08 6.65 6.65 0 0 1 .56-.36 17.8 17.8 0 0 1 4.6-2l.42-.11a18.32 18.32 0 0 1 4.42-.53q.7 0 1.38.06h.35a17.92 17.92 0 0 1 5.84 1.58l.23.11a18.16 18.16 0 0 1 10.23 14 17 17 0 0 1 .18 2.46z" fill="#407bff"/><g fill="#fff"><path d="m38.21 48.63a18.16 18.16 0 0 1 -10.08 16.28s0 0 0 0a3.82 3.82 0 0 1 -1-1.23c3.36-9.8 0-15 0-15v-.1l.24-1.58.05-.29c.52-2.91 1.83-8.36 4.67-11.66a18.17 18.17 0 0 1 6.12 13.58z" opacity=".6"/><path d="m6.05 45.48s-3.19 3.19-2.25 11.44a18.2 18.2 0 0 1 4.72-22.42 21.92 21.92 0 0 0 -2.47 10.98z" opacity=".6"/><path d="m32.09 35c-4 4.64-5 13.62-5 13.62-11 2.69-21.07-3.15-21.07-3.15a22 22 0 0 1 2.47-11 18.2 18.2 0 0 1 23.6.53z" opacity=".2"/><path d="m28.12 64.91a18.14 18.14 0 0 1 -21.27-3.72c3.41 2 10.38 4.87 20.27 2.49a3.82 3.82 0 0 0 1 1.23z" opacity=".2"/></g><g opacity=".2"><path d="m27.82 32.19a21.37 21.37 0 0 0 -1.31 2.08 32.09 32.09 0 0 0 -1.91 4.28c-.56 1.47-1 3-1.4 4.49s-.74 3.06-1 4.61a32.28 32.28 0 0 1 .63-4.65 38.5 38.5 0 0 1 1.3-4.58 28.2 28.2 0 0 1 2-4.3 21.86 21.86 0 0 1 1.42-2z"/><path d="m21.74 30.5c-.25.45-.48.91-.7 1.37a31.26 31.26 0 0 0 -1.81 4.81c-.53 1.64-.93 3.32-1.31 5s-.7 3.38-1 5.08a42.73 42.73 0 0 1 .62-5.16 43.77 43.77 0 0 1 1.2-5.06 28.25 28.25 0 0 1 1.95-4.85c.22-.41.45-.82.69-1.21z"/><path d="m15.59 31-.31.81a35.51 35.51 0 0 0 -1.35 4.55c-.39 1.54-.69 3.1-1 4.67s-.53 3.14-.76 4.72a40.35 40.35 0 0 1 .39-4.78 47.2 47.2 0 0 1 .87-4.72 29.89 29.89 0 0 1 1.47-4.59c.08-.18.16-.37.25-.55z"/><path d="m10.57 33.06c-.34 1.12-.66 2.24-.89 3.38s-.5 2.56-.68 3.85-.34 2.59-.46 3.9a27.29 27.29 0 0 1 .08-3.94 36.88 36.88 0 0 1 .59-3.91 29.39 29.39 0 0 1 .79-2.92 6.65 6.65 0 0 1 .57-.36z"/><path d="m32.24 54.7a17.82 17.82 0 0 1 -.73 5.57 18.83 18.83 0 0 1 -1 2.63c-.13.29-.28.58-.43.86a1.75 1.75 0 0 1 -.25.16 21 21 0 0 0 1.29-3.75 18.65 18.65 0 0 0 .6-5.46 20 20 0 0 0 -.84-5.43 22.26 22.26 0 0 0 -2.2-5.09 17.49 17.49 0 0 1 2.56 5 18.65 18.65 0 0 1 1 5.51z"/><path d="m35.83 54.19v1.51l-.21 1.5a9.87 9.87 0 0 1 -.21 1.21c-.15.23-.3.46-.47.69a13 13 0 0 0 .3-2l.15-1.48v-1.48a10.6 10.6 0 0 0 0-1.49c0-.49 0-1-.14-1.47a21.86 21.86 0 0 0 -1.47-5.73 20.32 20.32 0 0 0 -2.94-5.16 17 17 0 0 1 3.29 5 21 21 0 0 1 1.62 5.82c.08.5.07 1 .11 1.51a10.88 10.88 0 0 1 -.03 1.57z"/><path d="m38.21 48.63a1.62 1.62 0 0 1 0 .22l-.06-.34a26.55 26.55 0 0 0 -2-6 21.68 21.68 0 0 0 -3.46-5.33 18.59 18.59 0 0 1 3.8 5.16 24.77 24.77 0 0 1 1.58 3.89 17 17 0 0 1 .14 2.4z"/><path d="m5.16 42.6a14.91 14.91 0 0 0 -2.05 3 19.58 19.58 0 0 0 -1.31 3c0-.51 0-1 .07-1.52a15.11 15.11 0 0 1 .91-1.68 10.56 10.56 0 0 1 2.38-2.8z"/><path d="m6 37.76c-.76.86-1.5 1.71-2.22 2.57a16.42 16.42 0 0 1 .88-1.53 15 15 0 0 1 1.34-1.04z"/><path d="m6 49.34c1.66.64 3.35 1.2 5.05 1.69a43.8 43.8 0 0 0 5.15 1.23 23.46 23.46 0 0 0 10.51-.13 15.62 15.62 0 0 1 -5.24 1 27.33 27.33 0 0 1 -5.35-.42 38.06 38.06 0 0 1 -5.12-1.31 36.12 36.12 0 0 1 -5-2.06z"/><path d="m6 53.69a44.55 44.55 0 0 0 5.13 1.68 37.69 37.69 0 0 0 5.27 1 30 30 0 0 0 5.36.25l1.34-.06 1.34-.16c.9-.06 1.76-.32 2.66-.45a22.31 22.31 0 0 1 -5.3 1.05 27.48 27.48 0 0 1 -5.44-.15 32.31 32.31 0 0 1 -5.36-1.12 27.37 27.37 0 0 1 -5-2.04z"/><path d="m6.45 57.44a31.89 31.89 0 0 0 4.88 1.83 30.27 30.27 0 0 0 5.08 1c.85.13 1.71.16 2.58.22s1.72 0 2.59 0a31.33 31.33 0 0 0 5.15-.74 22.43 22.43 0 0 1 -5.12 1.13 23.13 23.13 0 0 1 -5.26-.07 26.54 26.54 0 0 1 -5.14-1.15 22.32 22.32 0 0 1 -4.76-2.22z"/><path d="m7.21 60.28a33.37 33.37 0 0 0 4.59 1.72 30.05 30.05 0 0 0 4.78 1 22.57 22.57 0 0 0 4.86.15l1.22-.15 1.2-.2c.82-.08 1.59-.36 2.4-.52a18.2 18.2 0 0 1 -4.79 1.2 21.11 21.11 0 0 1 -5-.05 25.54 25.54 0 0 1 -4.82-1.11 22 22 0 0 1 -4.44-2.04z"/></g></svg>