<svg viewBox="0 0 97.36 192.27" xmlns="http://www.w3.org/2000/svg"><ellipse cx="48.68" cy="185.62" fill="#ddd" rx="48.68" ry="6.65"/><path d="m32.8 181.19a1.68 1.68 0 0 1 -1.67 1.68 1.68 1.68 0 0 1 -1.68-1.68v-4.19a1.68 1.68 0 0 1 1.68-1.68 1.68 1.68 0 0 1 1.67 1.68z" fill="#1f1b3b"/><path d="m31.13 180.44a1.68 1.68 0 0 1 -1.68-1.68v2.43a1.68 1.68 0 1 0 3.35 0v-2.43a1.68 1.68 0 0 1 -1.67 1.68z" fill="#17142c"/><path d="m20 181.19a1.68 1.68 0 0 1 -1.68 1.68 1.68 1.68 0 0 1 -1.67-1.68v-4.19a1.68 1.68 0 0 1 1.67-1.68 1.68 1.68 0 0 1 1.68 1.68z" fill="#1f1b3b"/><path d="m18.31 180.44a1.68 1.68 0 0 1 -1.67-1.68v2.43a1.68 1.68 0 1 0 3.35 0v-2.43a1.68 1.68 0 0 1 -1.68 1.68z" fill="#17142c"/><path d="m12.96 175.27h23.99v3.25h-23.99z" fill="#100e1e"/><path d="m37.22 137.2a3.49 3.49 0 0 1 3.54 4l-3 26.21a4.59 4.59 0 0 1 -4.45 4h-17a4.5 4.5 0 0 1 -4.38-4l-2.55-26.2a3.55 3.55 0 0 1 3.6-4z" fill="#1f1b3b"/><path d="m9.36 140.28h31.4v6.88h-31.4z" fill="#1f1b3b"/><path d="m37.22 143.56a3.49 3.49 0 0 1 3.54 4l-3 26.21a4.59 4.59 0 0 1 -4.45 4h-17a4.5 4.5 0 0 1 -4.38-4l-2.55-26.2a3.55 3.55 0 0 1 3.6-4z" fill="#17142c"/><path d="m26.62 111.68c.74-2.08.66-6.42.66-6.42l-7.21 4.42c0 5.91 1.8 7 1.8 7a12.07 12.07 0 0 0 6.08 0 12.91 12.91 0 0 0 -1.33-5z" fill="#cc704f"/><path d="m52 174.24a48.63 48.63 0 0 0 .58 5.55s1.58 3.46 1.61 4.63l-1.1 1.2-4.67-.34-5.24-.39a10.38 10.38 0 0 1 -.14-5 16.44 16.44 0 0 0 -.87-5.69s6.08-4.08 9.83.04z" fill="#fff"/><path d="m57.49 164.14 4 11.81a1.88 1.88 0 0 1 -1.15 1.76s-8.34-5.71-11.66-11.54c0 0-.32-6.92 4-8.38z" fill="#fff"/><path d="m49.88 165s-.18-4 1.61-6.52c-3.06 2.22-2.81 7.73-2.81 7.73 3.32 5.79 11.65 11.5 11.65 11.5a2.07 2.07 0 0 0 1.09-1.29c-.96-.67-8.42-6.02-11.54-11.42z" fill="#ffc600"/><path d="m85.55 96.56v1.3s3.83 2.5 4.25 6a6.5 6.5 0 0 1 -3.31 5.83 24.07 24.07 0 0 1 -5.6-7.63v-2.69c0-.34-.41-3.26-.41-3.26s3.64-1.02 5.07.45z" fill="#ff8c63"/><path d="m71.14 140.68-12.31 23.91s-6-1.58-8.59-5.73l7.76-15.46-.43-5.73 6.43-6.15z" fill="#322e55"/><path d="m67.46 97.34 3.68 43.34-3.68 3.58-7.48-1.58-2.44-5.01-3.58-28.19-1.92-2.14-2.52-1.3v-11.45l7.02-2.01z" fill="#433d71"/><path d="m55.91 106.87h-3.91l-.19.17.19.54 1.92 1.9.45 2.84.5-2 1.41-1.45 1.56-3.52z" fill="#322e55"/><path d="m32.39 96.33.11 2.78 5.13 38.76 1 1-1 1.57 1 1.71.71.71-.71 1.36 3 31.73c3.43-2.57 11.09-1.39 11.09-1.39l-1.53-29.41-.86-1.72 1.67-2.71v-46.21c-13.51-3.7-19.61 1.82-19.61 1.82z" fill="#433d71"/><path d="m32.34 96.29.12 2.78 1.54 11.8h1.73l-.13-.26v-9.09l3-3.37 10.66-.15s2.22-.58 2.14-1c0-.21-.65-1.67-1.28-3-12.23-2.7-17.78 2.29-17.78 2.29z" fill="#322e55"/><path d="m42.5 175.41c.27-.14.54-.26.83-.38l-2.33-24.29.43-8.34-1.91-1.58.55-1.69-.65-1.48.65-.85-1.6-2.21-1.62-17.59-.11-2.64-1-3.38-2.4-5.08 4.24 32 1 1-1 1.57 1 1.71.71.71-.71 1.36 3 31.73a5.9 5.9 0 0 1 .8-.49z" fill="#322e55"/><path d="m49.3 98.06c8.13 2.52 15.71 4.13 18.5 3.29l-.34-4-10.92-4.77-5.73 1.64a28.24 28.24 0 0 0 -12.19-.52c5.47 1.98 10.68 4.36 10.68 4.36z" fill="#322e55"/><path d="m42.13 29.76s10.35-.37 13.9 0l1.73 1.76-1 3.35s-5.57 9.47-5.62 9.61-4.83-4.09-4.83-4.09z" fill="#29244e"/><path d="m86.11 90.34v-3.55s-7.44-42.18-14.65-48.29l-16.21-6.88-.11-7.29h-12.07s.37 5.3 0 7c0 0-11.13 7.55-17.12 11.21 0 0-6 44-5.88 54.39a4.77 4.77 0 0 0 1.66 1.07l-.66 6.66 6.88.67 1-5.22a14.6 14.6 0 0 0 3.55-1l-.11-2.78s7.55-3.21 19.53 1.56c0 0 10.77 3.11 17.87.33l-2.33-37.22 9.1 30a6 6 0 0 0 2.67 1l.65 5.33 6.61-.91z" fill="#29244e"/><path d="m55.14 24.33h-12.07s.37 5.3 0 7l7.63 12.5 4.55-12.17z" fill="#ff8c63"/><path d="m43.23 29 4.63 2a8.87 8.87 0 0 0 4.85 0s1.18-1.72 2.48-3.39v-3.27h-12.12s.18 2.56.16 4.66z" fill="#cc704f"/><path d="m40.73 11.93s.46 10.8 3.2 13.69l4.41 3.8a14 14 0 0 0 5.94 0 18.47 18.47 0 0 0 2.72-5.17s1.68-9 .76-15.06c0 0-.61-9.74-12.47-6.85.01 0-5.46 1.92-4.56 9.59z" fill="#ff8c63"/><path d="m53.76 35.62a15.27 15.27 0 0 1 -8 0l5 8.18z" fill="#f1f2eb"/><path d="m42.13 29.76s-2.49.63-3.18 4.3l12.28 15.16 8-15.91s-1.25-4-3.32-3.6l-5.21 14.08z" fill="#70505c"/><g fill="#1f1b3b"><path d="m80.6 90.53-2.42-1.28-2.18-7.64c-.15-2.35 2.65-3.11 2.65-3.11a4.3 4.3 0 0 0 -3.33 0c.38-1.28 3.18-2.64 3.18-2.64a6 6 0 0 0 -4.45.45c0-4.31 6.57-4.46 6.57-4.46-3.71-1.9-7.64.37-7.64.37l-5.52-11.22 9.1 30a6 6 0 0 0 2.67 1l.65 5.33 6.61-.91-.38-6.09v-1.24c-2.51-.22-5.51 1.44-5.51 1.44z"/><path d="m47 88.52c-4.49.5-10.73-2-10.73-2-2.67-1.25-1.67-4.62-1.67-4.62l1.25-.12.5-5a103.22 103.22 0 0 0 10.37 8.6c-5.42-8.72-11-26.32-11-26.32a22.79 22.79 0 0 1 -1.87 5.76v11.09l-.85 9.48-2 5.93-.5 6-2.71 1.28a13 13 0 0 0 -6.06-.6l-.66 6.66 6.88.67 1-5.22a14.6 14.6 0 0 0 3.55-1l-.11-2.78a17.15 17.15 0 0 1 4.57-1 21.78 21.78 0 0 1 -2-5.24c5.74 3.74 12.35 1.74 12.35 1.74 4.13-.83 11.69-.57 11.69-.57-4.81-3.62-12-2.74-12-2.74z"/><path d="m61.8 91.05s4 1.06 5.07 3.29a20.7 20.7 0 0 1 -11.62 3s-11.45-3.94-15.25-2.06a34.68 34.68 0 0 1 11.89 2.6s10.77 3.11 17.87.33l-2.3-37.21-.95 30a11.4 11.4 0 0 0 -4.71.05z"/></g><path d="m86.88 102.72v10.63l-11.98-4.53-.01-8.47z" fill="#ffc600"/><path d="m80.88 101.54s-.23 12.33 3.11.5c0 0-1.72-2-1.55-1.67s-1.56 1.17-1.56 1.17z" fill="#ff8c63"/><path d="m54.23 184.42a4.24 4.24 0 0 1 -.65 3.05s-3.1 1.41-10.25.54a6.68 6.68 0 0 1 0-3.59s5.9-6.63 10.9 0z" fill="#ffc600"/><path d="m43.33 188c7.15.87 10.25-.54 10.25-.54-3.5-7.82-10.25.54-10.25.54z" fill="#1f1b3b"/><path d="m16.87 111.54h15.85v2.66h-15.85z" fill="#1f1b3b"/><path d="m18.95 112.9h1.33v54.19h-1.33z" fill="#100e1e"/><path d="m29.31 112.9h1.33v54.19h-1.33z" fill="#100e1e"/><path d="m30.35 112.32s-.25 3.51-1.13 4.35c0 0-4 2.09-7.35 0-1-.63 1.12-4.35 1.12-4.35s6.85-1.99 7.36 0z" fill="#ff8c63"/><path d="m24.09 112c-.66.16-1.1.29-1.1.29a18.32 18.32 0 0 0 -1 2c.32.42.55.76.55.76a10.43 10.43 0 0 0 1.4 2.38 5.81 5.81 0 0 0 1 .12.55.55 0 0 0 .05-.15v-.19a10.91 10.91 0 0 0 -.9-5.21z" fill="#cc704f"/><path d="m27.28 105.26-5.34-.52a31.37 31.37 0 0 0 -1.87 4.94l1 2.64a9.35 9.35 0 0 1 2 2.25c2 4.36 2.43 2.35 2.43 2.35s0-.12 0-.19c.45-3-1.78-7-1.78-7 1.4.03 3.56-4.47 3.56-4.47z" fill="#ff8c63"/><path d="m37.74 173.74 1.66-14.4c-14.84 3.73-28.89 0-28.89 0l1.4 14.4a4.5 4.5 0 0 0 4.38 4h17a4.59 4.59 0 0 0 4.45-4z" fill="#1f1b3b"/><path d="m33.85 64.83s-1.95-8.37-1.85-9.83c0 0 0-13.63-.68-15.93 0 0 1.82-4.32 5-3.25a108.59 108.59 0 0 1 -.54 18.87s.73 6.43-1.93 10.14z" fill="#ffc600"/><path d="m70.28 38a5.49 5.49 0 0 0 -5.65-2.39c-.16 2.21 1.06 10.78 1.06 10.78 1.11 3.55 1.77 14.61 1.77 14.61l-.18 5.66a2 2 0 0 0 1.83-.25c2.07-8.31 1.17-28.41 1.17-28.41z" fill="#ffc600"/><path d="m69.11 66.45a63.1 63.1 0 0 0 1.24-11.45 7.33 7.33 0 0 1 -3.44-.74c.36 3.54.55 6.78.55 6.78l-.18 5.66a2 2 0 0 0 1.83-.25z" fill="#ddac00"/><path d="m33.85 64.83.38.25z" fill="#ddac00"/><path d="m32 52.19v2.81c-.08 1.42 1.87 9.79 1.87 9.79 2.66-3.71 1.87-10.1 1.87-10.1.1-.83.18-1.64.26-2.45a7 7 0 0 1 -4-.05z" fill="#ddac00"/><path d="m46.27 6.35s6.13 5.22 11.73 4.53c0 0 3.88-12.8-11.77-10.63 0 0-2.45.69-3.2 2 0 0-6.74 1.58-3.69 12.9l1.85 2h1.84v-3.91a9.16 9.16 0 0 0 3.24-6.89z" fill="#29244e"/><path d="m42.13 15.73s-1.21-2.55-3.06-1.42c0 0-1.53.4.4 4.34 0 0 1.77 3.21 3.06.64 0 0 .32-2.54-.4-3.56z" fill="#ff8c63"/></svg>