<svg viewBox="0 0 425.88 309.16" xmlns="http://www.w3.org/2000/svg"><circle cx="292.22" cy="74.7" fill="#f5f5f5" r="41.55"/><path d="m366.37 66.51a6.77 6.77 0 0 0 -6.77-6.77 6.6 6.6 0 0 0 -1.94.29 14.34 14.34 0 0 0 -14.18-16.41 15.34 15.34 0 0 0 -2.64.24 12.52 12.52 0 0 0 -23.22 6.34h-.21a11.54 11.54 0 1 0 0 23.08h42.38a6.76 6.76 0 0 0 6.58-6.77z" fill="#ebebeb"/><path d="m259.44 103.75a6.77 6.77 0 0 0 -6.77-6.75 6.5 6.5 0 0 0 -1.94.29 14.34 14.34 0 0 0 -14.18-16.41 14.41 14.41 0 0 0 -2.64.25 12.53 12.53 0 0 0 -23.23 6.33h-.2a11.54 11.54 0 1 0 0 23.08h42.38a6.77 6.77 0 0 0 6.58-6.79z" fill="#ebebeb"/><path d="m72.78 116.55a6.77 6.77 0 0 0 -6.78-6.76 6.84 6.84 0 0 0 -1.94.28 14.34 14.34 0 0 0 -14.17-16.41 14.41 14.41 0 0 0 -2.64.25 12.53 12.53 0 0 0 -23.25 6.33h-.2a11.55 11.55 0 1 0 0 23.09h42.4a6.76 6.76 0 0 0 6.58-6.78z" fill="#ebebeb"/><path d="m362.46 148.84a4.06 4.06 0 0 0 -5.26-3.91 8.67 8.67 0 0 0 -8.57-9.92 8.43 8.43 0 0 0 -1.6.15 7.57 7.57 0 0 0 -14.03 3.84h-.12a7 7 0 1 0 0 14h25.61a4.09 4.09 0 0 0 3.97-4.16z" fill="#ebebeb"/><path d="m115.25 17.32a4.09 4.09 0 0 0 -4.09-4.09 3.82 3.82 0 0 0 -1.17.18 8.67 8.67 0 0 0 -8.57-9.92 8.51 8.51 0 0 0 -1.6.15 7.56 7.56 0 0 0 -14 3.82h-.13a7 7 0 1 0 0 14h25.62a4.09 4.09 0 0 0 3.94-4.14z" fill="#ebebeb"/><path d="m46.68 170.07 27.08 123.01 4.92-2.31-28.44-121.39z" fill="#ebebeb"/><path d="m357.6 292.49s-16.73-115.58 20.95-235.12l-5.91-4.56s-44.17 90.4-37.74 242.92z" fill="#e6e6e6"/><g fill="#e0e0e0"><path d="m388.81 26c13.81-9.06 34.27 5.35 37.07 27.87a43.12 43.12 0 0 0 -6.34-3c-1.07-5.66-2.1-10.67-2.1-10.67l.73 10.16c-1.21-.43-2.54-.86-4-1.25l-.95-5.47-.45 5.11a48.47 48.47 0 0 0 -5.94-1l-2.58-16-1.34 15.69a41.27 41.27 0 0 0 -6.13.27l-1.56-10.91v11.07a42.38 42.38 0 0 0 -5.18 1.2l-1.89-16.2s.06 9.11-.05 16.83a42.82 42.82 0 0 0 -13.34 7.85l-.14-2s1.58-21.3 14.19-29.55z"/><path d="m369.71 18.75c-10.96-12.35-34.47-3.75-43.07 17.25a42.49 42.49 0 0 1 6.91-1.25c2.52-5.19 4.82-9.76 4.82-9.76l-3.37 9.58c1.28-.1 2.68-.16 4.16-.17l2.36-5-.9 5.05a48.53 48.53 0 0 1 6 .54l6.66-14.74-2.81 15.49a43.46 43.46 0 0 1 5.85 1.87l4.36-10.07-2.86 10.66a41.07 41.07 0 0 1 4.69 2.51l6.06-15.14s-2.44 8.78-4.36 16.26a42.53 42.53 0 0 1 10.79 11.07l.7-1.9s4.03-21-5.99-32.25z"/><path d="m359.14 48c11-10.74 19.26-1.39 19.26-1.39-4.13 1.07-7.81 3.72-11 7.09l-1.48-1.94.24 3.31c-.77.88-1.51 1.8-2.21 2.75l-2.52-5.74 1.07 7.76c-1 1.49-2 3-2.82 4.53l-1.11-5.69.08 7.54c-.91 1.7-1.74 3.37-2.46 4.94l-1.19-10.39-.16 13.48c-1.76 4.16-2.67 7.09-2.67 7.09s-4.03-22.56 6.97-33.34z"/><path d="m388.84 73.4-2.28 1.31c-.33-1.75-.71-3.58-1.15-5.44l1.59-2.83-2 1.2c-.16-.62-.32-1.24-.49-1.85l2-5.54-3 2.21c-1.6-5-3.64-9.39-6.2-11.49 0 0 25.23 8.06 11 35.25 0 0-.45-4.3-1.47-10z"/><path d="m364 51.16-4-7.6 1.66 7.91c-.4.07-.8.14-1.22.23l-5.22-6.51 1.28 7.49a48.2 48.2 0 0 0 -5.25 1.94 57.94 57.94 0 0 0 -5.45 2.75l-2.55-6.65 1.19 7.44c-1.73 1-3.41 2.13-5 3.27l-1.27-5.87.12 6.68c-2 1.43-3.85 2.9-5.58 4.33l.12-10.57-1.54 11.78c-1.77 1.51-3.35 3-4.7 4.23l-.2-7.37-1.86 9.36c-1.95 1.92-3.06 3.16-3.06 3.16 1-25.79 11-36 27.55-38.8s28.46 14.41 28.46 14.41-5.08-2.45-13.48-1.61z"/><path d="m412.27 82.68-1.52 7.68c-.72-1.9-1.71-4.36-3-7.08l1.39-11.28-2.48 8.87a85.34 85.34 0 0 0 -6.66-11.57l2.35-7.8-3.82 5.79c-.76-1-1.55-2-2.38-2.92l1.34-4.91-2.06 4.1c-.57-.61-1.14-1.2-1.74-1.77l1.63-6.55-2.58 5.66a29.47 29.47 0 0 0 -5.3-3.82l2.63-8-4.12 7.26a18.19 18.19 0 0 0 -8.29-1.73s5-8 14.19-10.75 29 13.89 20.4 50.6c0 0-.26-.83-.77-2.26z"/><path d="m397.11 11.35 1.57 4.65a10.15 10.15 0 0 0 -1.73.25l-1.89-6.07 1.26 6.23a13.25 13.25 0 0 0 -3.39 1.59l-2.61-8.2 1.53 8.93c-.41.31-.83.65-1.26 1l-2.94-7.73 2.22 8.35a32.08 32.08 0 0 0 -5.51 7.34l-.82-11.28-1.29 15.39a91.09 91.09 0 0 0 -5.2 14.91s-1.6-41 8.27-45.6 15.74 15.08 15.74 15.08a6.33 6.33 0 0 0 -1.35-.22z"/><path d="m383 57-.88 7.77-3-7.5-4 5.87-1.57-5.46-4.63 3.88s.57-9.91 3.53-14.44 11.81-1.39 10.55 9.88z"/></g><path d="m259.83 181.89v-54.17s-11 11.67-18.28 10.08-16.78 3.94-16.78 3.94 9.54-1.39 13.08 2.48 19.33 4.28 19.33 4.28v35.38z" fill="#ebebeb"/><path d="m308.32 165.29h-2.5v3.4h-8.24v-3.4h-8.09v3.4h-8.25v-3.4h-8.09v3.4h-8.24v-3.4h-8.1v3.4h-8.24v-3.4h-8.09v3.4h-8.25v-3.4h-8.09v3.4h-8.24v-3.4h-2.78l-8.03 64.2 111.54-.47z" fill="#e0e0e0"/><path d="m326.07 211.89h-3.43v4.68h-11.33v-4.68h-11.12v4.68h-11.32v-4.68h-11.12v4.68h-11.33v-4.68h-11.12v4.68h-11.33v-4.68h-11.12v4.68h-11.32v-4.68h-11.12v4.68h-11.33v-4.68h-3.81l-11.03 88.21 153.24-.64z" fill="#ebebeb"/><path d="m382.67 289.71c-2.36-2.67-4.6-5.4-7.07-8a2.81 2.81 0 0 1 -.36-.42 20.4 20.4 0 0 0 -2.55-1.41l-1.21-.46c-1-.36-2-.75-3-1.15-6.22-2.5-11.8-5.4-16.49-10.33-2.56-2.7-4.62-5.86-7.28-8.47-.06.09-.59-.19-.83-.4-.8-.09-1.87-.25-2-.25-1.08 0-2.15 0-3.22.07-1.54.07-3.07.19-4.6.33-5.95 8.72-13.49 20.62-16.82 22.2-5.14 2.44-52.61 15-56.11 14.23s-21.82.74-26.42.57-12.93-2.21-25-7.76-18.66-5.58-33.19-10.21-24.26-6.39-32.76.73-31.76-7.88-39.08-9.98-21.21-14.51-30.68-8.76-17.43 8.49-29.3 18.76-35.42 30.16-35.42 30.16h401l-4.6-8.05a33 33 0 0 1 -23.01-11.4z" fill="#f5f5f5"/><path d="m0 191.41s11.67-21 43.3-39.12c0 0 25.73-2.19 54.79 10.48 0 0 5.89 9.78-.8 13.64s-12.29-3.9-12.29-3.9-1.23 11.82-10 12.16-11.3-8.26-11.3-8.26-.8 10.84-11.22 13.59c-9.06 2.38-14.68-5.33-14.68-5.33s-1.8 8.91-9.91 11.49c-6.52 2.06-11-3.55-11-3.55s-1.87 9.68-8.79 9.68c-5.92 0-8.1-10.88-8.1-10.88z" fill="#e0e0e0"/></svg>